<?xml version="1.0" encoding="UTF-8"?>
<svg id="Layer_1" data-name="Layer 1" xmlns="http://www.w3.org/2000/svg" viewBox="0 0 245 19.5">
  <defs>
    <style>
      .cls-1 {
        fill: #f18629;
      }

      .cls-2 {
        fill: none;
        stroke: #f18629;
        stroke-miterlimit: 10;
        stroke-width: .5px;
      }
    </style>
  </defs>
  <rect class="cls-2" x="2.63" y="5.83" width="14" height="10"/>
  <g>
    <path class="cls-1" d="M55.43,14.5l.82-.11c.13-.02.22-.05.28-.08.06-.03.1-.09.13-.17.03-.08.05-.21.05-.38v-5.62c0-.23-.03-.39-.08-.46-.06-.08-.18-.13-.37-.16l-.82-.11v-.71h3.56c1.63,0,2.85.36,3.64,1.09s1.19,1.79,1.19,3.2-.37,2.43-1.12,3.15-1.86,1.07-3.34,1.07h-3.94v-.71ZM60.97,14.08c.45-.19.79-.53,1.03-1.01.24-.48.35-1.16.35-2.04,0-.94-.14-1.67-.41-2.18-.27-.51-.65-.85-1.14-1.03s-1.1-.26-1.85-.26h-.86v6.13c0,.21.02.36.07.44.04.09.14.15.3.18s.42.05.8.05c.7,0,1.27-.1,1.72-.29Z"/>
    <path class="cls-1" d="M64.8,14.58l.67-.08c.18-.03.3-.09.36-.17.06-.08.1-.22.1-.41v-3.65c0-.17-.03-.3-.1-.38-.07-.09-.19-.14-.35-.17l-.67-.08v-.56l2.39-.3-.07,1.62h.11c.22-.31.49-.6.8-.87.31-.27.61-.49.92-.67h.88v1.45h-1.06c-.24,0-.49.08-.76.23-.26.16-.51.37-.74.63v2.75c0,.19.03.33.1.42s.17.14.32.16l.89.11v.62h-3.77v-.64Z"/>
    <path class="cls-1" d="M71.26,18.03c-.13-.02-.29-.04-.46-.07l.17-1.26h.13c.19.1.35.17.48.22s.24.07.35.07c.16,0,.3-.04.43-.12s.27-.24.43-.47c.16-.23.34-.56.55-1l-2.16-5.23c-.08-.18-.18-.32-.31-.4s-.27-.14-.43-.17l-.16-.04v-.64h3.12v.64l-.53.07c-.11.03-.19.07-.25.13-.05.05-.08.12-.08.2,0,.06.02.14.06.26s.09.26.14.43l1.27,3.32,1.25-3.14c.08-.19.15-.37.2-.52.05-.16.08-.27.08-.34,0-.08-.02-.15-.07-.2s-.13-.09-.26-.11l-.61-.08v-.64h2.77v.64l-.13.04c-.13.02-.24.06-.34.12-.1.06-.18.13-.25.23-.07.1-.13.22-.2.36l-2.02,4.58c-.42.94-.78,1.63-1.09,2.09-.31.46-.6.75-.85.88-.26.13-.55.2-.89.2-.11,0-.23,0-.37-.02Z"/>
    <path class="cls-1" d="M82.3,15.22c-.54-.13-1.02-.28-1.45-.45v-2.66h.67l.3,1.08c.08.32.19.58.34.78s.36.35.64.46c.28.1.66.16,1.12.16.39,0,.72-.06,1-.18.27-.12.48-.27.62-.46.14-.19.21-.39.21-.59,0-.3-.1-.58-.29-.83s-.49-.47-.89-.64l-1.9-.86c-.56-.26-1-.58-1.32-.95-.32-.37-.48-.81-.48-1.33,0-.41.11-.78.34-1.11.23-.33.58-.6,1.04-.8.47-.2,1.05-.3,1.75-.3.5,0,.99.04,1.45.13.46.09.87.19,1.21.31v2.42h-.66l-.31-1.07c-.1-.34-.29-.59-.56-.74-.27-.15-.68-.22-1.24-.22s-.97.1-1.24.31c-.28.21-.41.47-.41.78,0,.28.11.53.32.76.21.22.54.44.98.65l1.87.88c.34.16.64.34.9.55s.46.46.61.76c.15.3.23.65.23,1.06s-.12.81-.37,1.17c-.24.36-.61.64-1.1.85-.49.21-1.08.31-1.79.31-.52,0-1.05-.07-1.59-.2Z"/>
    <path class="cls-1" d="M88.12,14.58l.67-.08c.18-.03.31-.09.37-.17.06-.08.09-.22.09-.41v-6.61c0-.17-.03-.3-.1-.38s-.18-.14-.36-.17l-.67-.08v-.55l2.46-.31v8.11c0,.19.03.33.09.41.06.08.18.14.35.17l.68.08v.64h-3.59v-.64ZM90.91,11.82l1.58-1.62c.14-.14.23-.25.29-.31.06-.06.08-.1.08-.13,0-.03-.02-.05-.05-.06s-.1-.02-.19-.04h-.05s-.52-.11-.52-.11v-.64h3.14v.64l-.44.06c-.26.04-.57.18-.91.43s-.84.7-1.5,1.34c-.04.03-.06.06-.06.08,0,.04.04.11.11.21.08.1.21.26.41.47l1.56,1.91c.09.11.19.2.31.28.12.07.24.12.37.14l.47.08v.64h-1.9l-2.71-3.4Z"/>
    <path class="cls-1" d="M96.07,14.58l.67-.08c.18-.03.3-.09.36-.17.06-.08.1-.22.1-.41v-3.65c0-.17-.03-.3-.1-.38-.07-.09-.19-.14-.35-.17l-.67-.08v-.56l2.46-.3v5.14c0,.19.03.33.09.42.06.09.17.15.34.18l.7.08v.64h-3.59v-.64ZM97.18,7.56c-.17-.16-.25-.37-.25-.62s.09-.45.26-.61.39-.24.65-.24.48.08.66.24.26.36.26.61-.09.46-.26.62-.39.24-.67.24-.49-.08-.66-.24Z"/>
    <path class="cls-1" d="M100.42,14.58l.67-.08c.18-.03.3-.09.36-.17.06-.08.1-.22.1-.41v-3.65c0-.17-.03-.3-.1-.38-.07-.09-.19-.14-.35-.17l-.67-.08v-.56l2.33-.3v1.34l-.35-.24.29-.14c.38-.21.71-.38,1-.52s.58-.24.85-.32c.28-.08.54-.12.8-.12.55,0,.98.17,1.27.5s.44.81.44,1.45v3.2c0,.19.03.33.09.41.06.08.18.14.37.17l.58.08v.64h-3.46v-.64l.66-.1c.17-.02.28-.08.35-.16s.1-.22.1-.41v-2.94c0-.39-.08-.68-.25-.88s-.41-.29-.73-.29c-.28,0-.6.05-.95.14-.36.09-.66.19-.92.29v3.67c0,.19.03.33.08.41.06.08.17.14.34.16l.67.1v.64h-3.55v-.64Z"/>
  </g>
</svg>