<?xml version="1.0" encoding="UTF-8"?>
<svg id="Layer_1" data-name="Layer 1" xmlns="http://www.w3.org/2000/svg" viewBox="0 0 245 19.5">
  <defs>
    <style>
      .cls-1 {
        fill: #cbedea;
      }

      .cls-2 {
        fill: #f18629;
      }
    </style>
  </defs>
  <rect class="cls-1" x="3" y="5" width="14" height="10"/>
  <g>
    <path class="cls-2" d="M56.29,14.11l.82-.11c.13-.02.22-.05.28-.08.06-.03.1-.09.13-.17.03-.08.05-.21.05-.38v-5.62c0-.21-.03-.36-.08-.44-.06-.09-.18-.15-.37-.18l-.82-.11v-.71h7.18v3.14h-.67l-.41-1.62c-.05-.24-.13-.41-.25-.52-.12-.1-.31-.15-.57-.14h-2.62s0,3.19,0,3.19h.92c.19.01.34-.03.43-.13.1-.09.16-.25.18-.47l.12-.76h.67v3.59h-.67l-.11-.78c-.02-.22-.08-.37-.18-.46s-.24-.14-.44-.14h-.92v2.15c0,.23.03.39.08.47s.18.13.38.15l1.07.12v.71h-4.2v-.71Z"/>
    <path class="cls-2" d="M64.41,14.19l.67-.08c.18-.03.3-.09.36-.17.06-.08.1-.22.1-.41v-3.65c0-.17-.03-.3-.1-.38-.07-.09-.19-.14-.35-.17l-.67-.08v-.56l2.39-.3-.07,1.62h.11c.22-.31.49-.6.8-.87.31-.27.61-.49.92-.67h.88v1.45h-1.06c-.24,0-.49.08-.76.23-.26.16-.51.37-.74.63v2.75c0,.19.03.33.1.42s.17.14.32.16l.89.11v.62h-3.77v-.64Z"/>
    <path class="cls-2" d="M71.64,14.61c-.48-.26-.84-.64-1.1-1.13s-.39-1.06-.39-1.71.12-1.25.36-1.77c.24-.52.59-.92,1.05-1.21s1.01-.44,1.64-.44,1.12.13,1.54.38.73.6.95,1.04c.22.44.32.93.32,1.49,0,.18-.02.37-.02.55h-4.96s0-.73,0-.73h3.66c0-.63-.13-1.11-.4-1.45-.27-.33-.65-.5-1.15-.5s-.92.2-1.21.61c-.3.41-.44,1.02-.44,1.85,0,.54.11.99.32,1.35.21.36.49.63.85.79.35.16.75.25,1.2.25.58,0,1.18-.12,1.82-.37l.24.49c-.28.22-.64.42-1.08.61-.44.19-.95.28-1.54.28-.62,0-1.17-.13-1.65-.39Z"/>
    <path class="cls-2" d="M78.54,14.87c-.44-.09-.85-.21-1.25-.36v-1.81h.56l.25.43c.15.38.35.67.61.85.25.18.6.27,1.05.27s.78-.08,1-.24c.22-.16.33-.36.33-.61s-.05-.42-.16-.55c-.11-.12-.3-.25-.58-.37l-1.74-.71c-.39-.16-.7-.37-.92-.64-.22-.26-.33-.6-.33-1.02,0-.31.09-.6.26-.86.17-.26.44-.48.81-.65s.82-.25,1.36-.25c.67,0,1.4.11,2.2.32v1.75h-.59l-.23-.46c-.09-.18-.18-.34-.28-.46-.1-.12-.23-.22-.41-.29-.18-.07-.4-.1-.67-.1-.41,0-.71.07-.9.21-.19.14-.29.31-.29.5s.05.34.16.47c.11.13.3.25.58.37l1.73.71c.4.16.71.38.93.65.22.28.33.63.33,1.05,0,.35-.1.67-.31.96s-.51.52-.89.7c-.39.18-.84.26-1.36.26-.39,0-.81-.04-1.24-.13Z"/>
    <path class="cls-2" d="M83.3,14.19l.67-.08c.18-.03.31-.09.37-.17.06-.08.09-.22.09-.41v-6.61c0-.17-.03-.3-.1-.38s-.18-.14-.36-.17l-.67-.08v-.55l2.46-.31v4.21l-.34-.19c.53-.32,1.03-.58,1.5-.77.47-.19.9-.29,1.3-.29.56,0,.99.17,1.28.5s.44.81.44,1.45v3.2c0,.19.03.33.1.41.06.08.18.14.36.17l.59.08v.64h-3.47v-.64l.67-.1c.17-.02.28-.08.34-.16.06-.08.09-.22.09-.41v-2.94c0-.38-.08-.67-.25-.87-.17-.2-.41-.29-.73-.29-.27,0-.59.05-.95.14-.36.09-.67.19-.92.29v3.67c0,.19.03.33.09.41.06.08.17.14.34.16l.66.1v.64h-3.55v-.64Z"/>
    <path class="cls-2" d="M94.25,14.11l.82-.11c.13-.02.22-.05.28-.08.06-.03.1-.09.13-.17.03-.08.05-.21.05-.38v-5.62c0-.21-.03-.36-.08-.44-.06-.09-.18-.15-.37-.18l-.82-.11v-.71h7.18v3.14h-.67l-.41-1.62c-.05-.24-.13-.41-.25-.52-.12-.1-.31-.15-.57-.14h-2.62s0,3.19,0,3.19h.92c.19.01.34-.03.43-.13.1-.09.16-.25.18-.47l.12-.76h.67v3.59h-.67l-.11-.78c-.02-.22-.08-.37-.18-.46s-.24-.14-.44-.14h-.92v2.15c0,.23.03.39.08.47s.18.13.38.15l1.07.12v.71h-4.2v-.71Z"/>
    <path class="cls-2" d="M102.37,14.19l.67-.08c.18-.03.3-.09.36-.17.06-.08.1-.22.1-.41v-3.65c0-.17-.03-.3-.1-.38-.07-.09-.19-.14-.35-.17l-.67-.08v-.56l2.39-.3-.07,1.62h.11c.22-.31.49-.6.8-.87.31-.27.61-.49.92-.67h.88v1.45h-1.06c-.24,0-.49.08-.76.23-.26.16-.51.37-.74.63v2.75c0,.19.03.33.1.42s.17.14.32.16l.89.11v.62h-3.77v-.64Z"/>
    <path class="cls-2" d="M108.36,14.56c-.35-.28-.52-.66-.52-1.14,0-.35.12-.67.36-.95.24-.28.66-.54,1.25-.76.59-.22,1.41-.4,2.45-.53v.6c-.71.14-1.27.29-1.68.45-.41.16-.69.34-.83.52-.15.18-.22.37-.22.58,0,.26.09.46.26.59.18.13.41.19.71.19.26,0,.53-.05.79-.16.26-.11.55-.28.85-.52l.28.47-.11.08c-.38.32-.74.57-1.08.74-.34.18-.72.26-1.16.26-.54,0-.99-.14-1.34-.42ZM111.86,14.67c-.18-.19-.28-.46-.28-.81v-3.41c0-.47-.1-.81-.29-1.01-.19-.2-.48-.31-.85-.31-.26,0-.47.04-.63.11s-.3.17-.4.29c-.1.12-.18.28-.23.46l-.14.5h-.68l-.26-1.72c.51-.12.99-.22,1.43-.3.44-.08.87-.12,1.28-.12.64,0,1.15.17,1.53.5.38.34.57.87.57,1.61v2.87c0,.26.03.45.1.55.06.1.18.18.34.22l.5.12v.49l-.12.04c-.19.05-.39.09-.59.13-.2.04-.38.06-.52.06-.31,0-.56-.09-.74-.28Z"/>
    <path class="cls-2" d="M116,17.64c-.45-.19-.79-.44-1.01-.74s-.34-.62-.37-.97l.95-1.12.46.24c-.09.1-.16.23-.22.37-.06.14-.09.3-.09.46,0,.26.07.48.22.67.15.19.38.34.71.44.32.11.74.16,1.25.16s.95-.06,1.28-.17c.33-.11.57-.26.72-.44.15-.18.22-.39.22-.62,0-.2-.08-.35-.24-.46-.16-.11-.45-.16-.88-.16h-2.05c-.61,0-1.07-.11-1.39-.33-.32-.22-.47-.51-.47-.88,0-.3.1-.58.29-.83.19-.25.46-.52.8-.8l.49.28c-.17.14-.3.29-.4.43-.1.14-.14.28-.14.41,0,.19.08.33.24.42s.46.13.9.13h1.99c.74,0,1.25.14,1.54.41.29.28.44.6.44.98,0,.45-.15.85-.45,1.22-.3.36-.72.65-1.26.87s-1.15.32-1.84.32-1.25-.1-1.7-.29ZM116.24,12.67c-.42-.2-.75-.47-.97-.82-.22-.35-.34-.75-.34-1.19s.11-.86.33-1.2c.22-.34.54-.61.97-.81s.92-.29,1.49-.29,1.08.1,1.5.29c.42.19.75.46.97.81.22.35.34.75.34,1.21s-.11.84-.34,1.19c-.22.35-.55.63-.97.82-.42.2-.92.29-1.5.29s-1.05-.1-1.48-.29ZM118.5,12.1c.22-.11.38-.29.49-.52.11-.24.16-.53.16-.89s-.05-.69-.16-.93c-.11-.24-.27-.43-.49-.55s-.48-.18-.78-.18-.56.06-.77.17-.37.29-.47.53c-.11.24-.16.54-.16.92s.05.66.16.91c.11.24.27.42.47.54.21.12.46.17.77.17s.56-.06.78-.17ZM119.83,8.32c.24-.32.48-.57.7-.74h.78v1.16h-.44c-.25,0-.47.05-.65.14-.19.1-.35.24-.5.44l-.41.02-.07-.12c.15-.29.35-.59.59-.91Z"/>
    <path class="cls-2" d="M122.01,14.19l.67-.08c.18-.03.3-.09.36-.17.06-.08.1-.22.1-.41v-3.65c0-.17-.03-.3-.1-.38-.07-.09-.19-.14-.35-.17l-.67-.08v-.56l2.39-.3-.07,1.62h.11c.22-.31.49-.6.8-.87.31-.27.61-.49.92-.67h.88v1.45h-1.06c-.24,0-.49.08-.76.23-.26.16-.51.37-.74.63v2.75c0,.19.03.33.1.42s.17.14.32.16l.89.11v.62h-3.77v-.64Z"/>
    <path class="cls-2" d="M128.01,14.56c-.35-.28-.52-.66-.52-1.14,0-.35.12-.67.36-.95.24-.28.66-.54,1.25-.76.59-.22,1.41-.4,2.45-.53v.6c-.71.14-1.27.29-1.68.45-.41.16-.69.34-.83.52-.15.18-.22.37-.22.58,0,.26.09.46.26.59.18.13.41.19.71.19.26,0,.53-.05.79-.16.26-.11.55-.28.85-.52l.28.47-.11.08c-.38.32-.74.57-1.08.74-.34.18-.72.26-1.16.26-.54,0-.99-.14-1.34-.42ZM131.51,14.67c-.18-.19-.28-.46-.28-.81v-3.41c0-.47-.1-.81-.29-1.01-.19-.2-.48-.31-.85-.31-.26,0-.47.04-.63.11s-.3.17-.4.29c-.1.12-.18.28-.23.46l-.14.5h-.68l-.26-1.72c.51-.12.99-.22,1.43-.3.44-.08.87-.12,1.28-.12.64,0,1.15.17,1.53.5.38.34.57.87.57,1.61v2.87c0,.26.03.45.1.55.06.1.18.18.34.22l.5.12v.49l-.12.04c-.19.05-.39.09-.59.13-.2.04-.38.06-.52.06-.31,0-.56-.09-.74-.28Z"/>
    <path class="cls-2" d="M134.12,14.19l.67-.08c.18-.03.3-.09.36-.17.06-.08.1-.22.1-.41v-3.65c0-.17-.03-.3-.1-.38-.07-.09-.19-.14-.35-.17l-.67-.08v-.56l2.33-.3v1.34l-.35-.24.29-.14c.38-.21.71-.38,1-.52s.58-.24.85-.32c.28-.08.54-.12.8-.12.55,0,.98.17,1.27.5s.44.81.44,1.45v3.2c0,.19.03.33.09.41.06.08.18.14.37.17l.58.08v.64h-3.46v-.64l.66-.1c.17-.02.28-.08.35-.16s.1-.22.1-.41v-2.94c0-.39-.08-.68-.25-.88s-.41-.29-.73-.29c-.28,0-.6.05-.95.14-.36.09-.66.19-.92.29v3.67c0,.19.03.33.08.41.06.08.17.14.34.16l.67.1v.64h-3.55v-.64Z"/>
    <path class="cls-2" d="M144.09,14.61c-.47-.26-.84-.64-1.1-1.14s-.39-1.09-.39-1.76.13-1.25.4-1.76c.27-.51.64-.9,1.1-1.18s.99-.42,1.58-.42c.5,0,.93.06,1.31.19.38.13.7.26.95.41l-.44,2.02h-.59l-.14-.71c-.08-.37-.2-.65-.37-.84-.17-.19-.45-.29-.84-.29-.28,0-.54.09-.79.27s-.45.44-.59.79c-.15.34-.22.75-.22,1.22,0,.53.09.98.28,1.37.19.38.45.68.79.89s.73.31,1.19.31c.28,0,.54-.03.79-.09.25-.06.51-.15.78-.27l.24.49c-.14.14-.32.27-.55.4-.23.13-.49.25-.8.34-.3.1-.62.14-.96.14-.62,0-1.16-.13-1.63-.39Z"/>
    <path class="cls-2" d="M150.53,14.61c-.48-.26-.84-.64-1.1-1.13s-.39-1.06-.39-1.71.12-1.25.36-1.77c.24-.52.59-.92,1.05-1.21s1.01-.44,1.64-.44,1.12.13,1.54.38.73.6.95,1.04c.22.44.32.93.32,1.49,0,.18-.02.37-.02.55h-4.96s0-.73,0-.73h3.66c0-.63-.13-1.11-.4-1.45-.27-.33-.65-.5-1.15-.5s-.92.2-1.21.61c-.3.41-.44,1.02-.44,1.85,0,.54.11.99.32,1.35.21.36.49.63.85.79.35.16.75.25,1.2.25.58,0,1.18-.12,1.82-.37l.24.49c-.28.22-.64.42-1.08.61-.44.19-.95.28-1.54.28-.62,0-1.17-.13-1.65-.39Z"/>
  </g>
</svg>