<?xml version="1.0" encoding="UTF-8"?>
<svg id="Layer_1" data-name="Layer 1" xmlns="http://www.w3.org/2000/svg" viewBox="0 0 245 19.5">
  <defs>
    <style>
      .cls-1 {
        fill: #f18629;
      }

      .cls-2 {
        fill: #eecfae;
      }
    </style>
  </defs>
  <rect class="cls-2" x="3" y="5" width="14" height="10"/>
  <g>
    <path class="cls-1" d="M56.23,14.11l.82-.11c.13-.02.23-.06.29-.1.07-.04.11-.11.14-.2.02-.09.04-.23.04-.41v-1.69c0-1.26,0-2.52.01-3.77,0-.18-.01-.31-.04-.4-.03-.09-.07-.15-.13-.19-.06-.03-.15-.06-.27-.08l-.79-.14v-.71h2.78l4.37,7.25-.3.07v-5.8c0-.25-.03-.42-.09-.52-.06-.1-.19-.16-.39-.18l-.9-.12v-.71h3.37v.71l-.53.08c-.14.02-.25.06-.31.1-.06.04-.1.11-.13.2-.02.09-.04.23-.04.43v6.98h-1.51l-4.42-7.37.3-.08v5.92c0,.26.03.43.08.52s.18.15.39.17l1,.13v.71h-3.74v-.71Z"/>
    <path class="cls-1" d="M67.14,14.46c-.32-.34-.48-.84-.48-1.5v-3.1c0-.17-.03-.3-.1-.38-.07-.09-.19-.14-.35-.17l-.68-.08v-.56l2.46-.3v4.04c0,.56.09.96.28,1.19.18.23.46.35.84.35.26,0,.55-.05.89-.14.34-.1.66-.21.95-.35l-.18.28v-3.86c0-.17-.03-.3-.1-.38s-.19-.14-.35-.17l-.67-.08v-.56l2.45-.3v4.98c0,.26.03.45.1.55.06.1.18.18.34.22l.52.12v.49c-.22.06-.45.12-.67.16-.22.04-.41.07-.58.07-.29,0-.52-.08-.68-.23-.17-.15-.26-.36-.28-.61-.47.28-.9.49-1.27.64-.38.15-.76.22-1.16.22-.51,0-.93-.17-1.25-.52Z"/>
    <path class="cls-1" d="M74.96,14.64c-.21-.24-.31-.57-.31-1v-4.31h-.94v-.55l.5-.18c.17-.06.3-.14.38-.23s.15-.22.19-.39l.28-.94h.9v1.49h1.76v.8h-1.76v4c0,.26.05.43.14.53s.22.14.39.14.36-.02.55-.07c.19-.05.37-.11.55-.18l.22.49c-.23.19-.53.37-.89.52-.36.16-.72.23-1.07.23-.38,0-.68-.12-.89-.36Z"/>
    <path class="cls-1" d="M79.93,14.64c-.21-.24-.31-.57-.31-1v-4.31h-.94v-.55l.5-.18c.17-.06.3-.14.38-.23s.15-.22.19-.39l.28-.94h.9v1.49h1.76v.8h-1.76v4c0,.26.05.43.14.53s.22.14.39.14.36-.02.55-.07c.19-.05.37-.11.55-.18l.22.49c-.23.19-.53.37-.89.52-.36.16-.72.23-1.07.23-.38,0-.68-.12-.89-.36Z"/>
    <path class="cls-1" d="M84.15,17.64c-.13-.02-.29-.04-.46-.07l.17-1.26h.13c.19.1.35.17.48.22s.24.07.35.07c.16,0,.3-.04.43-.12s.27-.24.43-.47c.16-.23.34-.56.55-1l-2.16-5.23c-.08-.18-.18-.32-.31-.4s-.27-.14-.43-.17l-.16-.04v-.64h3.12v.64l-.53.07c-.11.03-.19.07-.25.13-.05.05-.08.12-.08.2,0,.06.02.14.06.26s.09.26.14.43l1.27,3.32,1.25-3.14c.08-.19.15-.37.2-.52.05-.16.08-.27.08-.34,0-.08-.02-.15-.07-.2s-.13-.09-.26-.11l-.61-.08v-.64h2.77v.64l-.13.04c-.13.02-.24.06-.34.12-.1.06-.18.13-.25.23-.07.1-.13.22-.2.36l-2.02,4.58c-.42.94-.78,1.63-1.09,2.09-.31.46-.6.75-.85.88-.26.13-.55.2-.89.2-.11,0-.23,0-.37-.02Z"/>
    <path class="cls-1" d="M93.36,14.11l.82-.11c.13-.02.22-.05.28-.08.06-.03.1-.09.13-.17.03-.08.05-.21.05-.38v-5.62c0-.21-.03-.36-.08-.44-.06-.09-.18-.15-.37-.18l-.82-.11v-.71h7.18v3.14h-.67l-.41-1.62c-.05-.24-.13-.41-.25-.52-.12-.1-.31-.15-.57-.14h-2.62s0,3.19,0,3.19h.92c.19.01.34-.03.43-.13.1-.09.16-.25.18-.47l.12-.76h.67v3.59h-.67l-.11-.78c-.02-.22-.08-.37-.18-.46s-.24-.14-.44-.14h-.92v2.15c0,.23.03.39.08.47s.18.13.38.15l1.07.12v.71h-4.2v-.71Z"/>
    <path class="cls-1" d="M101.48,14.19l.67-.08c.18-.03.3-.09.36-.17.06-.08.1-.22.1-.41v-3.65c0-.17-.03-.3-.1-.38-.07-.09-.19-.14-.35-.17l-.67-.08v-.56l2.39-.3-.07,1.62h.11c.22-.31.49-.6.8-.87.31-.27.61-.49.92-.67h.88v1.45h-1.06c-.24,0-.49.08-.76.23-.26.16-.51.37-.74.63v2.75c0,.19.03.33.1.42s.17.14.32.16l.89.11v.62h-3.77v-.64Z"/>
    <path class="cls-1" d="M107.48,14.56c-.35-.28-.52-.66-.52-1.14,0-.35.12-.67.36-.95.24-.28.66-.54,1.25-.76.59-.22,1.41-.4,2.45-.53v.6c-.71.14-1.27.29-1.68.45-.41.16-.69.34-.83.52-.15.18-.22.37-.22.58,0,.26.09.46.26.59.18.13.41.19.71.19.26,0,.53-.05.79-.16.26-.11.55-.28.85-.52l.28.47-.11.08c-.38.32-.74.57-1.08.74-.34.18-.72.26-1.16.26-.54,0-.99-.14-1.34-.42ZM110.97,14.67c-.18-.19-.28-.46-.28-.81v-3.41c0-.47-.1-.81-.29-1.01-.19-.2-.48-.31-.85-.31-.26,0-.47.04-.63.11s-.3.17-.4.29c-.1.12-.18.28-.23.46l-.14.5h-.68l-.26-1.72c.51-.12.99-.22,1.43-.3.44-.08.87-.12,1.28-.12.64,0,1.15.17,1.53.5.38.34.57.87.57,1.61v2.87c0,.26.03.45.1.55.06.1.18.18.34.22l.5.12v.49l-.12.04c-.19.05-.39.09-.59.13-.2.04-.38.06-.52.06-.31,0-.56-.09-.74-.28Z"/>
    <path class="cls-1" d="M115.11,17.64c-.45-.19-.79-.44-1.01-.74s-.34-.62-.37-.97l.95-1.12.46.24c-.09.1-.16.23-.22.37-.06.14-.09.3-.09.46,0,.26.07.48.22.67.15.19.38.34.71.44.32.11.74.16,1.25.16s.95-.06,1.28-.17c.33-.11.57-.26.72-.44.15-.18.22-.39.22-.62,0-.2-.08-.35-.24-.46-.16-.11-.45-.16-.88-.16h-2.05c-.61,0-1.07-.11-1.39-.33-.32-.22-.47-.51-.47-.88,0-.3.1-.58.29-.83.19-.25.46-.52.8-.8l.49.28c-.17.14-.3.29-.4.43-.1.14-.14.28-.14.41,0,.19.08.33.24.42s.46.13.9.13h1.99c.74,0,1.25.14,1.54.41.29.28.44.6.44.98,0,.45-.15.85-.45,1.22-.3.36-.72.65-1.26.87s-1.15.32-1.84.32-1.25-.1-1.7-.29ZM115.35,12.67c-.42-.2-.75-.47-.97-.82-.22-.35-.34-.75-.34-1.19s.11-.86.33-1.2c.22-.34.54-.61.97-.81s.92-.29,1.49-.29,1.08.1,1.5.29c.42.19.75.46.97.81.22.35.34.75.34,1.21s-.11.84-.34,1.19c-.22.35-.55.63-.97.82-.42.2-.92.29-1.5.29s-1.05-.1-1.48-.29ZM117.61,12.1c.22-.11.38-.29.49-.52.11-.24.16-.53.16-.89s-.05-.69-.16-.93c-.11-.24-.27-.43-.49-.55s-.48-.18-.78-.18-.56.06-.77.17-.37.29-.47.53c-.11.24-.16.54-.16.92s.05.66.16.91c.11.24.27.42.47.54.21.12.46.17.77.17s.56-.06.78-.17ZM118.95,8.32c.24-.32.48-.57.7-.74h.78v1.16h-.44c-.25,0-.47.05-.65.14-.19.1-.35.24-.5.44l-.41.02-.07-.12c.15-.29.35-.59.59-.91Z"/>
    <path class="cls-1" d="M121.13,14.19l.67-.08c.18-.03.3-.09.36-.17.06-.08.1-.22.1-.41v-3.65c0-.17-.03-.3-.1-.38-.07-.09-.19-.14-.35-.17l-.67-.08v-.56l2.39-.3-.07,1.62h.11c.22-.31.49-.6.8-.87.31-.27.61-.49.92-.67h.88v1.45h-1.06c-.24,0-.49.08-.76.23-.26.16-.51.37-.74.63v2.75c0,.19.03.33.1.42s.17.14.32.16l.89.11v.62h-3.77v-.64Z"/>
    <path class="cls-1" d="M127.12,14.56c-.35-.28-.52-.66-.52-1.14,0-.35.12-.67.36-.95.24-.28.66-.54,1.25-.76.59-.22,1.41-.4,2.45-.53v.6c-.71.14-1.27.29-1.68.45-.41.16-.69.34-.83.52-.15.18-.22.37-.22.58,0,.26.09.46.26.59.18.13.41.19.71.19.26,0,.53-.05.79-.16.26-.11.55-.28.85-.52l.28.47-.11.08c-.38.32-.74.57-1.08.74-.34.18-.72.26-1.16.26-.54,0-.99-.14-1.34-.42ZM130.62,14.67c-.18-.19-.28-.46-.28-.81v-3.41c0-.47-.1-.81-.29-1.01-.19-.2-.48-.31-.85-.31-.26,0-.47.04-.63.11s-.3.17-.4.29c-.1.12-.18.28-.23.46l-.14.5h-.68l-.26-1.72c.51-.12.99-.22,1.43-.3.44-.08.87-.12,1.28-.12.64,0,1.15.17,1.53.5.38.34.57.87.57,1.61v2.87c0,.26.03.45.1.55.06.1.18.18.34.22l.5.12v.49l-.12.04c-.19.05-.39.09-.59.13-.2.04-.38.06-.52.06-.31,0-.56-.09-.74-.28Z"/>
    <path class="cls-1" d="M133.23,14.19l.67-.08c.18-.03.3-.09.36-.17.06-.08.1-.22.1-.41v-3.65c0-.17-.03-.3-.1-.38-.07-.09-.19-.14-.35-.17l-.67-.08v-.56l2.33-.3v1.34l-.35-.24.29-.14c.38-.21.71-.38,1-.52s.58-.24.85-.32c.28-.08.54-.12.8-.12.55,0,.98.17,1.27.5s.44.81.44,1.45v3.2c0,.19.03.33.09.41.06.08.18.14.37.17l.58.08v.64h-3.46v-.64l.66-.1c.17-.02.28-.08.35-.16s.1-.22.1-.41v-2.94c0-.39-.08-.68-.25-.88s-.41-.29-.73-.29c-.28,0-.6.05-.95.14-.36.09-.66.19-.92.29v3.67c0,.19.03.33.08.41.06.08.17.14.34.16l.67.1v.64h-3.55v-.64Z"/>
    <path class="cls-1" d="M143.21,14.61c-.47-.26-.84-.64-1.1-1.14s-.39-1.09-.39-1.76.13-1.25.4-1.76c.27-.51.64-.9,1.1-1.18s.99-.42,1.58-.42c.5,0,.93.06,1.31.19.38.13.7.26.95.41l-.44,2.02h-.59l-.14-.71c-.08-.37-.2-.65-.37-.84-.17-.19-.45-.29-.84-.29-.28,0-.54.09-.79.27s-.45.44-.59.79c-.15.34-.22.75-.22,1.22,0,.53.09.98.28,1.37.19.38.45.68.79.89s.73.31,1.19.31c.28,0,.54-.03.79-.09.25-.06.51-.15.78-.27l.24.49c-.14.14-.32.27-.55.4-.23.13-.49.25-.8.34-.3.1-.62.14-.96.14-.62,0-1.16-.13-1.63-.39Z"/>
    <path class="cls-1" d="M149.64,14.61c-.48-.26-.84-.64-1.1-1.13s-.39-1.06-.39-1.71.12-1.25.36-1.77c.24-.52.59-.92,1.05-1.21s1.01-.44,1.64-.44,1.12.13,1.54.38.73.6.95,1.04c.22.44.32.93.32,1.49,0,.18-.02.37-.02.55h-4.96s0-.73,0-.73h3.66c0-.63-.13-1.11-.4-1.45-.27-.33-.65-.5-1.15-.5s-.92.2-1.21.61c-.3.41-.44,1.02-.44,1.85,0,.54.11.99.32,1.35.21.36.49.63.85.79.35.16.75.25,1.2.25.58,0,1.18-.12,1.82-.37l.24.49c-.28.22-.64.42-1.08.61-.44.19-.95.28-1.54.28-.62,0-1.17-.13-1.65-.39Z"/>
  </g>
</svg>