<?xml version="1.0" encoding="UTF-8"?>
<svg id="Layer_1" data-name="Layer 1" xmlns="http://www.w3.org/2000/svg" viewBox="0 0 245 19.5">
  <defs>
    <style>
      .cls-1 {
        fill: #f18629;
      }
    </style>
  </defs>
  <path class="cls-1" d="M3.02,5.67s.27.38.42,0,.3-.25.5-.06.04-.25.04-.25l.7.09s-.06-.79-.02-.9.46-.34.4-.16.08.88.22.83.37-.45.36-.47-.83-.64-.66-.96.3-.8.99-1.07.4-.86.63-.67,1.16,1.28,1.36,1.29,1.62.03,2.02-.29.87-.56.87-.56c0,0,.72,1.24.59,1.5s-.44.66-.78.7-1.47.78-1.61,1.14-1.24,1.41-1.24,1.41c0,0,.34.09.44-.06s.55.74.35.89-.3-.16-.3-.16l.64,1.21s.75.85,1.18,1.48.84,1.26.79,1.41.55-.43.81-.19.96,1.18.99,1.56.42,2.71.2,2.64c0,0-1.61-2.31-1.79-2.27s-.42-.2-.42.09-.15.34-.35.42-.39-.31-.39-.31c0,0-1,.03-.99.46s.08,1.25.08,1.25c0,0,1.83-.18,1.86.13s.02,2.24.02,2.24l-2.35-.04s-.09-.37-.03-.83.07-1.28.07-1.28c0,0-.02-.64-.26-.56s-.76.69-.98.72-.58.39-.58.39c0,0,.07-.24-.38-.75s-.66-.03-.8-.06-.55.75-.77.09-.68-1.1-.65-1.34,1.54.06,1.68-.23,0-.55-.14-.72c0,0,1.42-.28,1.86-.65s.34-.74.12-.87-.93-.21-.92-.21-.21-.4-.31-.93.04-1.14.04-1.34-1.41-.44-1.49-1.42-2.08-1.41-2.02-2.29Z"/>
  <g>
    <path class="cls-1" d="M60.28,13.48l.84-.11c.12-.02.21-.05.27-.08.06-.03.1-.09.13-.17.03-.08.04-.21.04-.38v-2.38h-3.72v2.38c0,.23.03.39.08.47.05.08.17.14.37.17l.84.11v.71h-3.95v-.71l.82-.11c.13-.02.22-.05.28-.08.06-.03.1-.09.13-.17.03-.08.05-.21.05-.38v-5.62c0-.23-.03-.39-.08-.46-.06-.08-.18-.13-.37-.16l-.82-.11v-.71h3.95v.71l-.83.11c-.13.02-.22.04-.29.08s-.11.09-.13.17c-.02.08-.04.2-.04.37v2.36h3.72v-2.36c0-.22-.03-.38-.08-.46-.06-.08-.18-.14-.37-.17l-.83-.11v-.71h3.95v.71l-.82.11c-.19.03-.32.09-.37.16-.06.08-.08.23-.08.46v5.62c0,.24.03.4.08.47.06.08.18.13.37.16l.82.11v.71h-3.95v-.71Z"/>
    <path class="cls-1" d="M66.47,13.98c-.48-.26-.84-.64-1.1-1.13s-.39-1.06-.39-1.71.12-1.25.36-1.77c.24-.52.59-.92,1.05-1.21s1.01-.44,1.64-.44,1.12.13,1.54.38.73.6.95,1.04c.22.44.32.93.32,1.49,0,.18-.02.37-.02.55h-4.96s0-.73,0-.73h3.66c0-.63-.13-1.11-.4-1.45-.27-.33-.65-.5-1.15-.5s-.92.2-1.21.61c-.3.41-.44,1.02-.44,1.85,0,.54.11.99.32,1.35.21.36.49.63.85.79.35.16.75.25,1.2.25.58,0,1.18-.12,1.82-.37l.24.49c-.28.22-.64.42-1.08.61-.44.19-.95.28-1.54.28-.62,0-1.17-.13-1.65-.39Z"/>
    <path class="cls-1" d="M72.37,13.92c-.35-.28-.52-.66-.52-1.14,0-.35.12-.67.36-.95.24-.28.66-.54,1.25-.76.59-.22,1.41-.4,2.45-.53v.6c-.71.14-1.27.29-1.68.45-.41.16-.69.34-.83.52-.15.18-.22.37-.22.58,0,.26.09.46.26.59.18.13.41.19.71.19.26,0,.53-.05.79-.16.26-.11.55-.28.85-.52l.28.47-.11.08c-.38.32-.74.57-1.08.74-.34.18-.72.26-1.16.26-.54,0-.99-.14-1.34-.42ZM75.87,14.04c-.18-.19-.28-.46-.28-.81v-3.41c0-.47-.1-.81-.29-1.01-.19-.2-.48-.31-.85-.31-.26,0-.47.04-.63.11s-.3.17-.4.29c-.1.12-.18.28-.23.46l-.14.5h-.68l-.26-1.72c.51-.12.99-.22,1.43-.3.44-.08.87-.12,1.28-.12.64,0,1.15.17,1.53.5.38.34.57.87.57,1.61v2.87c0,.26.03.45.1.55.06.1.18.18.34.22l.5.12v.49l-.12.04c-.19.05-.39.09-.59.13-.2.04-.38.06-.52.06-.31,0-.56-.09-.74-.28Z"/>
    <path class="cls-1" d="M78.31,8.75c-.12-.1-.27-.16-.44-.19l-.16-.02v-.64h3.11v.64l-.52.07c-.13.03-.22.07-.26.12s-.07.11-.07.19.06.27.17.58l1.33,3.68,1.26-3.37c.07-.22.13-.39.17-.53.04-.14.06-.25.06-.35,0-.08-.02-.15-.07-.2-.05-.06-.14-.09-.26-.11l-.6-.08v-.64h2.76v.64l-.13.04c-.2.04-.36.12-.49.25s-.25.35-.38.66l-1.91,4.76h-1.26l-1.99-4.99c-.09-.24-.19-.41-.32-.5Z"/>
    <path class="cls-1" d="M85.8,17.01c-.13-.02-.29-.04-.46-.07l.17-1.26h.13c.19.1.35.17.48.22s.24.07.35.07c.16,0,.3-.04.43-.12s.27-.24.43-.47c.16-.23.34-.56.55-1l-2.16-5.23c-.08-.18-.18-.32-.31-.4s-.27-.14-.43-.17l-.16-.04v-.64h3.12v.64l-.53.07c-.11.03-.19.07-.25.13-.05.05-.08.12-.08.2,0,.06.02.14.06.26s.09.26.14.43l1.27,3.32,1.25-3.14c.08-.19.15-.37.2-.52.05-.16.08-.27.08-.34,0-.08-.02-.15-.07-.2s-.13-.09-.26-.11l-.61-.08v-.64h2.77v.64l-.13.04c-.13.02-.24.06-.34.12-.1.06-.18.13-.25.23-.07.1-.13.22-.2.36l-2.02,4.58c-.42.94-.78,1.63-1.09,2.09-.31.46-.6.75-.85.88-.26.13-.55.2-.89.2-.11,0-.23,0-.37-.02Z"/>
    <path class="cls-1" d="M97.1,13.89c-.63-.35-1.12-.85-1.46-1.51-.34-.66-.51-1.45-.51-2.38s.17-1.73.52-2.42c.34-.68.83-1.21,1.47-1.58s1.39-.56,2.26-.56c.5,0,.97.05,1.43.14.46.1.81.2,1.06.3v2.56h-.66l-.25-.88c-.05-.3-.14-.53-.27-.71-.13-.18-.31-.32-.55-.41-.23-.09-.53-.14-.89-.14-.5,0-.95.12-1.34.36-.39.24-.7.62-.93,1.15-.23.52-.35,1.2-.35,2.02,0,.89.12,1.61.36,2.16.24.55.56.95.96,1.19.4.24.86.36,1.37.36.38,0,.68-.05.92-.14.24-.09.43-.23.56-.43.14-.19.23-.43.29-.72l.23-.96h.64v2.64c-.3.13-.67.24-1.11.33-.44.09-.93.14-1.47.14-.89,0-1.65-.17-2.28-.52Z"/>
    <path class="cls-1" d="M103.28,13.55l.67-.08c.18-.03.3-.09.36-.17.06-.08.1-.22.1-.41v-3.65c0-.17-.03-.3-.1-.38-.07-.09-.19-.14-.35-.17l-.67-.08v-.56l2.39-.3-.07,1.62h.11c.22-.31.49-.6.8-.87.31-.27.61-.49.92-.67h.88v1.45h-1.06c-.24,0-.49.08-.76.23-.26.16-.51.37-.74.63v2.75c0,.19.03.33.1.42s.17.14.32.16l.89.11v.62h-3.77v-.64Z"/>
    <path class="cls-1" d="M110.51,13.98c-.48-.26-.84-.64-1.1-1.13s-.39-1.06-.39-1.71.12-1.25.36-1.77c.24-.52.59-.92,1.05-1.21s1.01-.44,1.64-.44,1.12.13,1.54.38.73.6.95,1.04c.22.44.32.93.32,1.49,0,.18-.02.37-.02.55h-4.96s0-.73,0-.73h3.66c0-.63-.13-1.11-.4-1.45-.27-.33-.65-.5-1.15-.5s-.92.2-1.21.61c-.3.41-.44,1.02-.44,1.85,0,.54.11.99.32,1.35.21.36.49.63.85.79.35.16.75.25,1.2.25.58,0,1.18-.12,1.82-.37l.24.49c-.28.22-.64.42-1.08.61-.44.19-.95.28-1.54.28-.62,0-1.17-.13-1.65-.39Z"/>
    <path class="cls-1" d="M116.41,13.92c-.35-.28-.52-.66-.52-1.14,0-.35.12-.67.36-.95.24-.28.66-.54,1.25-.76.59-.22,1.41-.4,2.45-.53v.6c-.71.14-1.27.29-1.68.45-.41.16-.69.34-.83.52-.15.18-.22.37-.22.58,0,.26.09.46.26.59.18.13.41.19.71.19.26,0,.53-.05.79-.16.26-.11.55-.28.85-.52l.28.47-.11.08c-.38.32-.74.57-1.08.74-.34.18-.72.26-1.16.26-.54,0-.99-.14-1.34-.42ZM119.91,14.04c-.18-.19-.28-.46-.28-.81v-3.41c0-.47-.1-.81-.29-1.01-.19-.2-.48-.31-.85-.31-.26,0-.47.04-.63.11s-.3.17-.4.29c-.1.12-.18.28-.23.46l-.14.5h-.68l-.26-1.72c.51-.12.99-.22,1.43-.3.44-.08.87-.12,1.28-.12.64,0,1.15.17,1.53.5.38.34.57.87.57,1.61v2.87c0,.26.03.45.1.55.06.1.18.18.34.22l.5.12v.49l-.12.04c-.19.05-.39.09-.59.13-.2.04-.38.06-.52.06-.31,0-.56-.09-.74-.28Z"/>
    <path class="cls-1" d="M122.53,13.55l.67-.08c.18-.03.3-.09.36-.17.06-.08.1-.22.1-.41v-3.65c0-.17-.03-.3-.1-.38-.07-.09-.19-.14-.35-.17l-.67-.08v-.56l2.33-.3v1.2l-.23-.13c.42-.26.87-.51,1.35-.73.48-.22.93-.34,1.35-.34.54,0,.95.16,1.24.49s.43.8.43,1.4v3.25c0,.19.03.33.08.41s.17.14.35.16l.67.1v.64h-3.53v-.64l.65-.1c.17-.02.29-.08.35-.16.07-.08.1-.22.1-.41v-2.94c0-.39-.08-.68-.25-.88s-.42-.29-.77-.29c-.22,0-.49.04-.79.12-.3.08-.6.18-.88.31v3.67c0,.19.03.33.08.41.06.08.17.14.34.16l.67.1v.64h-3.55v-.64ZM130.57,13.55l.66-.1c.18-.02.3-.08.36-.16.06-.08.1-.22.1-.41v-2.94c0-.39-.08-.68-.25-.88-.17-.19-.42-.29-.76-.29-.24,0-.53.05-.86.14-.33.09-.66.21-.99.37l-.13-.54.22-.13c.42-.25.83-.46,1.24-.62s.8-.25,1.17-.25c.53,0,.94.16,1.24.49.3.33.44.81.44,1.45v3.2c0,.19.03.33.09.41.06.08.18.14.35.17l.6.08v.64h-3.48v-.64Z"/>
  </g>
</svg>