<?xml version="1.0" encoding="UTF-8"?>
<svg id="Layer_1" data-name="Layer 1" xmlns="http://www.w3.org/2000/svg" viewBox="0 0 245 19.5">
  <defs>
    <style>
      .cls-1 {
        fill: #f18629;
      }
    </style>
  </defs>
  <path class="cls-1" d="M4.93,5.26s-.04-.4-.54-.44-.23-.3-.05-.26.04-.23.18-.28.54-.3.31-1.08-.03-.14-.03-.14c0,0,.47.06.55-.86s.44.09.65-.25.23-.77.12-.84-.02-.18.15,0,.27.87.12,1.38-.32.73-.07,1.31.07.84.04,1.05-.11.58.04.43.62-1.06.63-1.17.08-.18-.17-.49-.17-1.03-.16-1.25-.08-.71-.03-.73.05-.17.17,0,.02.15.12.17,0,.19,0,.38-.08.7.24.77.52.13.73-.33.13-.07.23.1.24.48.5.66.13.68.09.81-.12.53.33.62,1.04-.19,1.16.23-.12.3.12.42-.07.39.12.47.73,1.07.25,2.26-.32,1.14-.32,1.14c0,0-.4,1.42-.45,1.56s-.44.98-.89.52-.73-.56-1.03-.74-.35-.4-.45-.56.12-.33.12-.33c0,0,.56-.3,1-.19s.61-.63.35-1.1-.18-.97-.59-1.05-.3-.37-.69-.55-.72-.12-.63.16.36.72.31,1-.3.24-.2.69.5.31.44.62-.03.75-.19.69-.62-.35-.94-.09-.42.26-.11.59.13.04.18.34.22.29,0,.64-.31.46-.19.66c0,0-.13.11-.07.69s.12,1.04-.06,1.05-.14.51.1.37.38-.24.42-.73.15-1.2.15-1.2c0,0-.11.79-.04,1.08s.48-1.42,1.46-1.33.33.53.22.57-.35.15-.47.1-.37.23-.43.28-.11.36-.19.42.11.31-.14.38-.17.3-.17.3c0,0-.06.33-.15.34s-.11-.39-.11-.39c0,0,.08.59-.08.73s-.32.06-.29.18-.24-.51-.32-.52-.1.04-.07.21.34,1.36.62,1.48.25.15.18.4-.56.37-.56.99-.07,1.17-.3,1.14-.64-.4-.52-.9.3-1.09-.05-1.47-.42-.49-.44-1.01-.16-.37-.16-.37c0,0,.4.29.49-.33s.6-2.64.26-3.19.35-.05.24-.39-.27-.53-.05-.64-.38.03-.45-.36-.54-1.19.28-1.86.18-.5.02-.28-.06.31-.21.29-.19-.47.07-.66.44.08.71-.39-.24-.84-.07-1.11-.13-.76-.48-.54-.8.28-.8.28c0,0-.03.77-.49,1.31s-.63.75-.86.79-.3.18-.36.2-.12-.19.09-.4,1.16-1.73,1.19-2.13.37-.29.37-.29Z"/>
  <g>
    <path class="cls-1" d="M55.18,13.48l.82-.11c.19-.03.32-.09.37-.16.06-.08.08-.23.08-.47v-5.62c0-.23-.03-.39-.08-.46-.06-.08-.18-.13-.37-.16l-.82-.11v-.71h4.2v.71l-1.07.11c-.21.02-.34.08-.39.16s-.08.24-.08.46v6.2h2.39c.26,0,.45-.05.58-.16.13-.11.22-.28.26-.51l.48-1.94h.67v3.48h-7.04v-.71Z"/>
    <path class="cls-1" d="M63.12,13.55l.67-.08c.18-.03.3-.09.36-.17.06-.08.1-.22.1-.41v-3.65c0-.17-.03-.3-.1-.38-.07-.09-.19-.14-.35-.17l-.67-.08v-.56l2.46-.3v5.14c0,.19.03.33.09.42.06.09.17.15.34.18l.7.08v.64h-3.59v-.64ZM64.22,6.53c-.17-.16-.25-.37-.25-.62s.09-.45.26-.61.39-.24.65-.24.48.08.66.24.26.36.26.61-.09.46-.26.62-.39.24-.67.24-.49-.08-.66-.24Z"/>
    <path class="cls-1" d="M68.74,17.01c-.45-.19-.79-.44-1.01-.74s-.34-.62-.37-.97l.95-1.12.46.24c-.09.1-.16.23-.22.37-.06.14-.09.3-.09.46,0,.26.07.48.22.67.15.19.38.34.71.44.32.11.74.16,1.25.16s.95-.06,1.28-.17c.33-.11.57-.26.72-.44.15-.18.22-.39.22-.62,0-.2-.08-.35-.24-.46-.16-.11-.45-.16-.88-.16h-2.05c-.61,0-1.07-.11-1.39-.33-.32-.22-.47-.51-.47-.88,0-.3.1-.58.29-.83.19-.25.46-.52.8-.8l.49.28c-.17.14-.3.29-.4.43-.1.14-.14.28-.14.41,0,.19.08.33.24.42s.46.13.9.13h1.99c.74,0,1.25.14,1.54.41.29.28.44.6.44.98,0,.45-.15.85-.45,1.22-.3.36-.72.65-1.26.87s-1.15.32-1.84.32-1.25-.1-1.7-.29ZM68.98,12.03c-.42-.2-.75-.47-.97-.82-.22-.35-.34-.75-.34-1.19s.11-.86.33-1.2c.22-.34.54-.61.97-.81s.92-.29,1.49-.29,1.08.1,1.5.29c.42.19.75.46.97.81.22.35.34.75.34,1.21s-.11.84-.34,1.19c-.22.35-.55.63-.97.82-.42.2-.92.29-1.5.29s-1.05-.1-1.48-.29ZM71.24,11.46c.22-.11.38-.29.49-.52.11-.24.16-.53.16-.89s-.05-.69-.16-.93c-.11-.24-.27-.43-.49-.55s-.48-.18-.78-.18-.56.06-.77.17-.37.29-.47.53c-.11.24-.16.54-.16.92s.05.66.16.91c.11.24.27.42.47.54.21.12.46.17.77.17s.56-.06.78-.17ZM72.58,7.68c.24-.32.48-.57.7-.74h.78v1.16h-.44c-.25,0-.47.05-.65.14-.19.1-.35.24-.5.44l-.41.02-.07-.12c.15-.29.35-.59.59-.91Z"/>
    <path class="cls-1" d="M74.69,13.55l.67-.08c.18-.03.31-.09.37-.17.06-.08.09-.22.09-.41v-6.61c0-.17-.03-.3-.1-.38s-.18-.14-.36-.17l-.67-.08v-.55l2.46-.31v4.21l-.34-.19c.53-.32,1.03-.58,1.5-.77.47-.19.9-.29,1.3-.29.56,0,.99.17,1.28.5s.44.81.44,1.45v3.2c0,.19.03.33.1.41.06.08.18.14.36.17l.59.08v.64h-3.47v-.64l.67-.1c.17-.02.28-.08.34-.16.06-.08.09-.22.09-.41v-2.94c0-.38-.08-.67-.25-.87-.17-.2-.41-.29-.73-.29-.27,0-.59.05-.95.14-.36.09-.67.19-.92.29v3.67c0,.19.03.33.09.41.06.08.17.14.34.16l.66.1v.64h-3.55v-.64Z"/>
    <path class="cls-1" d="M84.12,14.01c-.21-.24-.31-.57-.31-1v-4.31h-.94v-.55l.5-.18c.17-.06.3-.14.38-.23s.15-.22.19-.39l.28-.94h.9v1.49h1.76v.8h-1.76v4c0,.26.05.43.14.53s.22.14.39.14.36-.02.55-.07c.19-.05.37-.11.55-.18l.22.49c-.23.19-.53.37-.89.52-.36.16-.72.23-1.07.23-.38,0-.68-.12-.89-.36Z"/>
    <path class="cls-1" d="M92.53,13.89c-.63-.35-1.12-.85-1.46-1.51-.34-.66-.51-1.45-.51-2.38s.17-1.73.52-2.42c.34-.68.83-1.21,1.47-1.58s1.39-.56,2.26-.56c.5,0,.97.05,1.43.14.46.1.81.2,1.06.3v2.56h-.66l-.25-.88c-.05-.3-.14-.53-.27-.71-.13-.18-.31-.32-.55-.41-.23-.09-.53-.14-.89-.14-.5,0-.95.12-1.34.36-.39.24-.7.62-.93,1.15-.23.52-.35,1.2-.35,2.02,0,.89.12,1.61.36,2.16.24.55.56.95.96,1.19.4.24.86.36,1.37.36.38,0,.68-.05.92-.14.24-.09.43-.23.56-.43.14-.19.23-.43.29-.72l.23-.96h.64v2.64c-.3.13-.67.24-1.11.33-.44.09-.93.14-1.47.14-.89,0-1.65-.17-2.28-.52Z"/>
    <path class="cls-1" d="M98.71,13.55l.67-.08c.18-.03.3-.09.36-.17.06-.08.1-.22.1-.41v-3.65c0-.17-.03-.3-.1-.38-.07-.09-.19-.14-.35-.17l-.67-.08v-.56l2.39-.3-.07,1.62h.11c.22-.31.49-.6.8-.87.31-.27.61-.49.92-.67h.88v1.45h-1.06c-.24,0-.49.08-.76.23-.26.16-.51.37-.74.63v2.75c0,.19.03.33.1.42s.17.14.32.16l.89.11v.62h-3.77v-.64Z"/>
    <path class="cls-1" d="M105.94,13.98c-.48-.26-.84-.64-1.1-1.13s-.39-1.06-.39-1.71.12-1.25.36-1.77c.24-.52.59-.92,1.05-1.21s1.01-.44,1.64-.44,1.12.13,1.54.38.73.6.95,1.04c.22.44.32.93.32,1.49,0,.18-.02.37-.02.55h-4.96s0-.73,0-.73h3.66c0-.63-.13-1.11-.4-1.45-.27-.33-.65-.5-1.15-.5s-.92.2-1.21.61c-.3.41-.44,1.02-.44,1.85,0,.54.11.99.32,1.35.21.36.49.63.85.79.35.16.75.25,1.2.25.58,0,1.18-.12,1.82-.37l.24.49c-.28.22-.64.42-1.08.61-.44.19-.95.28-1.54.28-.62,0-1.17-.13-1.65-.39Z"/>
    <path class="cls-1" d="M111.84,13.92c-.35-.28-.52-.66-.52-1.14,0-.35.12-.67.36-.95.24-.28.66-.54,1.25-.76.59-.22,1.41-.4,2.45-.53v.6c-.71.14-1.27.29-1.68.45-.41.16-.69.34-.83.52-.15.18-.22.37-.22.58,0,.26.09.46.26.59.18.13.41.19.71.19.26,0,.53-.05.79-.16.26-.11.55-.28.85-.52l.28.47-.11.08c-.38.32-.74.57-1.08.74-.34.18-.72.26-1.16.26-.54,0-.99-.14-1.34-.42ZM115.34,14.04c-.18-.19-.28-.46-.28-.81v-3.41c0-.47-.1-.81-.29-1.01-.19-.2-.48-.31-.85-.31-.26,0-.47.04-.63.11s-.3.17-.4.29c-.1.12-.18.28-.23.46l-.14.5h-.68l-.26-1.72c.51-.12.99-.22,1.43-.3.44-.08.87-.12,1.28-.12.64,0,1.15.17,1.53.5.38.34.57.87.57,1.61v2.87c0,.26.03.45.1.55.06.1.18.18.34.22l.5.12v.49l-.12.04c-.19.05-.39.09-.59.13-.2.04-.38.06-.52.06-.31,0-.56-.09-.74-.28Z"/>
    <path class="cls-1" d="M117.96,13.55l.67-.08c.18-.03.3-.09.36-.17.06-.08.1-.22.1-.41v-3.65c0-.17-.03-.3-.1-.38-.07-.09-.19-.14-.35-.17l-.67-.08v-.56l2.33-.3v1.2l-.23-.13c.42-.26.87-.51,1.35-.73.48-.22.93-.34,1.35-.34.54,0,.95.16,1.24.49s.43.8.43,1.4v3.25c0,.19.03.33.08.41s.17.14.35.16l.67.1v.64h-3.53v-.64l.65-.1c.17-.02.29-.08.35-.16.07-.08.1-.22.1-.41v-2.94c0-.39-.08-.68-.25-.88s-.42-.29-.77-.29c-.22,0-.49.04-.79.12-.3.08-.6.18-.88.31v3.67c0,.19.03.33.08.41.06.08.17.14.34.16l.67.1v.64h-3.55v-.64ZM126,13.55l.66-.1c.18-.02.3-.08.36-.16.06-.08.1-.22.1-.41v-2.94c0-.39-.08-.68-.25-.88-.17-.19-.42-.29-.76-.29-.24,0-.53.05-.86.14-.33.09-.66.21-.99.37l-.13-.54.22-.13c.42-.25.83-.46,1.24-.62s.8-.25,1.17-.25c.53,0,.94.16,1.24.49.3.33.44.81.44,1.45v3.2c0,.19.03.33.09.41.06.08.18.14.35.17l.6.08v.64h-3.48v-.64Z"/>
  </g>
</svg>