<?xml version="1.0" encoding="UTF-8"?>
<svg id="Layer_1" data-name="Layer 1" xmlns="http://www.w3.org/2000/svg" viewBox="0 0 245 19.5">
  <defs>
    <style>
      .cls-1 {
        fill: #f18629;
      }
    </style>
  </defs>
  <path class="cls-1" d="M11.76,14.93l-.22-.39s.03.29,0,.39-1.34-2.42-1.61-2.35.17-.05.07.15-.37.18-.14.36.45.14.23.18.94.78.38.59-.64-1.01-.87-.99c-.17.02.53,1.06.91,1.6.13.19.22.31.22.31,0,0-.68-.37-.75-.74s-.1-.5-.24-.41-.13.09-.2-.05-.36-.46-.6-.76,0-1.17,0-1.17l.26.15-.21-.41s.29-.34.19-.57.21-.52.21-.52l.17.08s-.2.12-.07-.22.27-1.67.51-1.49,1.38-3.51,1.38-3.51c0,0-.02-.47.28-.52s-.27-.13-.26-.4.13-.35.26-.29.16-.31.14-.44-.13-.38-.07-.54.03-.39-.13-.31-.12.28-.33.02-.28-.56-.21-.26.33.8.1.95-.08.09-.38.33-.41.3-.44.07-.06.07-.1-.47.09.28.19-.12-.04-.49-.04-.63.49-.07.45-.48-.01-.37-.17-.45-.3-.07-.31-.08-.15.25-.15.25c0,0-.12-.31.03-.54s.02-.05-.25-.06-.29-.01-.27-.01.15.35.2.19.25.34.26.58.34.63,0,.8-.25.22-.11.38.24.2.06.37-.75.4-.53.63.38-.07.58.16-.14.52-.2.84-.34,1.25-.34,1.25c0,0,.13-.21.29-.71s.65-.51.57-.08-.39,1.64-.44,1.48-.07-.84-.49-.49-.07.47-.23.49-.26.19-.19-.14.38-1.54.23-1.56.03.1-.03.29.05.41-.09.46.02.79-.24.79-.02,0-.03.16-.29-.28-.53-.24-.42.42-.36.04.63-1.03.57-1.51.23-.69.15-.81-.1-.75.08-.56.15-.1.11-.21-.21-.45-.17-.66,0-.62-.11-.47-.13.23-.05.56.08.42.07.66-.16.39-.11.76-.21.33-.32,1.21-.2.24-.2.24c0,0,.08.59-.14.51s-.72.01-.27.22-.21-.17-.4.18-.77.21-.48.28.43-.06.75-.1.47.6.76.33.13.02-.07.32.39-.02.49-.32-.02.35.26.41.35-.14.12.48-.52.02-.67.09.53.33.53.33l-.26.65s.36-.53.49-.91-.05-.82.18-.7.34.22.08.46-.38.36-.23.56.37-.32.4-.47-.12,1.28-.37,1.4-1.11-.09-1.28.08-.17.24-.34.21.41.28.3.4-.24.04-.24.04l.28.23s.33.08.27-.23-.65-.12-.28-.32.56-.28.78-.2,0,.31.13.44-.22.04-.33.02.27.04.22.26.02.35-.21.5-.23.29-.09.48.37.23.09.32.31.32-.04.35-.43-.62-.85-.55-.55.05-.73.01.22.03.4.42-.21.31-.59,0-.28-.51-.74-.47-1.41.42-1.26-.09.73-.45.73-.45c0,0-.33-.15-.49-.36s.18-.55-.42-.35-.66.19-.92.45-.43-.13-.6-.17-.12.52.26.47.82-.3.87.08.08.66.34.61.23.53-.25.22-.65-.87-.8-.81-.1-.5-.15.06.05,1.1-.18,1.19.04.27.04.27l.36-.11.15.27s.02-.64.26-.63.81-.26.81.09-.44.14,0,.35.47-.4.47-.4c0,0-.42.62-.03.6s.84-.84.97-.64-.52.51-.52.51c0,0,.27.06.53.29s-.13-.71.2-.72-.26.37.08.56.4.36.87.55.65.03.64.27-.68-.27-.96-.17-.12.34.3.52.54.22.62.42.29-.29.56.07,1.07,1.13.5.85-1.06-.37-1.18-.71-1.54-.51-1.42-1.07-.38-.95-.24-.32-.25,1.29-.39.7-.1-.31-.51-.48-.4-.47-1.14-.42-1.06-.39-.74.05.17.33.55.8.27,0,.27-.18.1.33.61.25,1.03-.06,1.01.29-.04.92.12.91-.18-.38.08-.59.68-.76.77-.22-.58,2.68-.43,3.04.45-2.25.45-2.25l-.09,2.06s.19-2.59.31-2.7.3.54.22,1.11c-.03.2-.09.33-.16.44-.13.21-.29.34-.23.65.09.48.52,1.69.52,1.69,0,0,.55.68.63.36,0,0-.27.36-.36-.23s-.39-.89-.41-1.23-.44.16-.05-.87.3-.31.55-.87.32-.09.6-.11.73.18.52.25-.7-.32-.77,0-.19.5-.19.5c0,0-.01-.24.36-.02s.49.08.43.47.24.59-.01.54-.7-.41-.49-.18.13.08.52.57.58,1.15.66.8-.55-1.01-.18-1.11.22.18.7.36.67.24.49.5.97.53.43.51-.41.15-.41.15c0,0,.91.73.69-.41s.05-.9.16-.36.08.87.08.87c0,0,.28.05.26-.27s.08-.22.12-.64-.41-.41-.3-.81.22-.56.26-1.08.25-1.02.02-1.42Z"/>
  <g>
    <path class="cls-1" d="M55.23,13.09l.85-.11c.21-.04.34-.1.4-.19.06-.08.08-.26.08-.52v-5.53c0-.24-.03-.4-.08-.47-.06-.08-.18-.13-.36-.16l-.83-.11v-.71h3.25l2.06,5.7,1.96-5.7h3.26v.71l-.83.11c-.13.02-.22.04-.28.08-.06.04-.1.1-.13.18s-.04.2-.04.36v5.62c0,.23.03.39.08.47.06.08.18.14.37.17l.83.11v.71h-3.9v-.71l.83-.11c.12-.02.21-.05.27-.08.06-.03.1-.08.13-.17.02-.08.04-.21.04-.39v-6.59l.19.02-2.53,7.42h-.86l-2.62-7.39.18-.04v6.49c0,.26.03.43.09.53.06.1.19.16.39.19l.94.11v.71h-3.73v-.71Z"/>
    <path class="cls-1" d="M68.06,13.59c-.48-.26-.84-.64-1.1-1.13s-.39-1.06-.39-1.71.12-1.25.36-1.77c.24-.52.59-.92,1.05-1.21s1.01-.44,1.64-.44,1.12.13,1.54.38.73.6.95,1.04c.22.44.32.93.32,1.49,0,.18-.02.37-.02.55h-4.96s0-.73,0-.73h3.66c0-.63-.13-1.11-.4-1.45-.27-.33-.65-.5-1.15-.5s-.92.2-1.21.61c-.3.41-.44,1.02-.44,1.85,0,.54.11.99.32,1.35.21.36.49.63.85.79.35.16.75.25,1.2.25.58,0,1.18-.12,1.82-.37l.24.49c-.28.22-.64.42-1.08.61-.44.19-.95.28-1.54.28-.62,0-1.17-.13-1.65-.39Z"/>
    <path class="cls-1" d="M73.35,13.17l.67-.08c.18-.03.31-.09.37-.17.06-.08.09-.22.09-.41v-6.61c0-.17-.03-.3-.1-.38s-.18-.14-.36-.17l-.67-.08v-.55l2.46-.31v8.11c0,.19.03.33.09.41.06.08.18.14.35.17l.68.08v.64h-3.59v-.64Z"/>
    <path class="cls-1" d="M78.88,13.62c-.21-.24-.31-.57-.31-1v-4.31h-.94v-.55l.5-.18c.17-.06.3-.14.38-.23s.15-.22.19-.39l.28-.94h.9v1.49h1.76v.8h-1.76v4c0,.26.05.43.14.53s.22.14.39.14.36-.02.55-.07c.19-.05.37-.11.55-.18l.22.49c-.23.19-.53.37-.89.52-.36.16-.72.23-1.07.23-.38,0-.68-.12-.89-.36Z"/>
    <path class="cls-1" d="M82.55,13.17l.67-.08c.18-.03.3-.09.36-.17.06-.08.1-.22.1-.41v-3.65c0-.17-.03-.3-.1-.38-.07-.09-.19-.14-.35-.17l-.67-.08v-.56l2.46-.3v5.14c0,.19.03.33.09.42.06.09.17.15.34.18l.7.08v.64h-3.59v-.64ZM83.66,6.14c-.17-.16-.25-.37-.25-.62s.09-.45.26-.61.39-.24.65-.24.48.08.66.24.26.36.26.61-.09.46-.26.62-.39.24-.67.24-.49-.08-.66-.24Z"/>
    <path class="cls-1" d="M86.9,13.17l.67-.08c.18-.03.3-.09.36-.17.06-.08.1-.22.1-.41v-3.65c0-.17-.03-.3-.1-.38-.07-.09-.19-.14-.35-.17l-.67-.08v-.56l2.33-.3v1.34l-.35-.24.29-.14c.38-.21.71-.38,1-.52s.58-.24.85-.32c.28-.08.54-.12.8-.12.55,0,.98.17,1.27.5s.44.81.44,1.45v3.2c0,.19.03.33.09.41.06.08.18.14.37.17l.58.08v.64h-3.46v-.64l.66-.1c.17-.02.28-.08.35-.16s.1-.22.1-.41v-2.94c0-.39-.08-.68-.25-.88s-.41-.29-.73-.29c-.28,0-.6.05-.95.14-.36.09-.66.19-.92.29v3.67c0,.19.03.33.08.41.06.08.17.14.34.16l.67.1v.64h-3.55v-.64Z"/>
    <path class="cls-1" d="M96.56,16.62c-.45-.19-.79-.44-1.01-.74s-.34-.62-.37-.97l.95-1.12.46.24c-.09.1-.16.23-.22.37-.06.14-.09.3-.09.46,0,.26.07.48.22.67.15.19.38.34.71.44.32.11.74.16,1.25.16s.95-.06,1.28-.17c.33-.11.57-.26.72-.44.15-.18.22-.39.22-.62,0-.2-.08-.35-.24-.46-.16-.11-.45-.16-.88-.16h-2.05c-.61,0-1.07-.11-1.39-.33-.32-.22-.47-.51-.47-.88,0-.3.1-.58.29-.83.19-.25.46-.52.8-.8l.49.28c-.17.14-.3.29-.4.43-.1.14-.14.28-.14.41,0,.19.08.33.24.42s.46.13.9.13h1.99c.74,0,1.25.14,1.54.41.29.28.44.6.44.98,0,.45-.15.85-.45,1.22-.3.36-.72.65-1.26.87s-1.15.32-1.84.32-1.25-.1-1.7-.29ZM96.81,11.65c-.42-.2-.75-.47-.97-.82-.22-.35-.34-.75-.34-1.19s.11-.86.33-1.2c.22-.34.54-.61.97-.81s.92-.29,1.49-.29,1.08.1,1.5.29c.42.19.75.46.97.81.22.35.34.75.34,1.21s-.11.84-.34,1.19c-.22.35-.55.63-.97.82-.42.2-.92.29-1.5.29s-1.05-.1-1.48-.29ZM99.06,11.08c.22-.11.38-.29.49-.52.11-.24.16-.53.16-.89s-.05-.69-.16-.93c-.11-.24-.27-.43-.49-.55s-.48-.18-.78-.18-.56.06-.77.17-.37.29-.47.53c-.11.24-.16.54-.16.92s.05.66.16.91c.11.24.27.42.47.54.21.12.46.17.77.17s.56-.06.78-.17ZM100.4,7.3c.24-.32.48-.57.7-.74h.78v1.16h-.44c-.25,0-.47.05-.65.14-.19.1-.35.24-.5.44l-.41.02-.07-.12c.15-.29.35-.59.59-.91Z"/>
    <path class="cls-1" d="M107.52,13.51c-.63-.35-1.12-.85-1.46-1.51-.34-.66-.51-1.45-.51-2.38s.17-1.73.52-2.42c.34-.68.83-1.21,1.47-1.58s1.39-.56,2.26-.56c.5,0,.97.05,1.43.14.46.1.81.2,1.06.3v2.56h-.66l-.25-.88c-.05-.3-.14-.53-.27-.71-.13-.18-.31-.32-.55-.41-.23-.09-.53-.14-.89-.14-.5,0-.95.12-1.34.36-.39.24-.7.62-.93,1.15-.23.52-.35,1.2-.35,2.02,0,.89.12,1.61.36,2.16.24.55.56.95.96,1.19.4.24.86.36,1.37.36.38,0,.68-.05.92-.14.24-.09.43-.23.56-.43.14-.19.23-.43.29-.72l.23-.96h.64v2.64c-.3.13-.67.24-1.11.33-.44.09-.93.14-1.47.14-.89,0-1.65-.17-2.28-.52Z"/>
    <path class="cls-1" d="M113.71,13.17l.67-.08c.18-.03.3-.09.36-.17.06-.08.1-.22.1-.41v-3.65c0-.17-.03-.3-.1-.38-.07-.09-.19-.14-.35-.17l-.67-.08v-.56l2.39-.3-.07,1.62h.11c.22-.31.49-.6.8-.87.31-.27.61-.49.92-.67h.88v1.45h-1.06c-.24,0-.49.08-.76.23-.26.16-.51.37-.74.63v2.75c0,.19.03.33.1.42s.17.14.32.16l.89.11v.62h-3.77v-.64Z"/>
    <path class="cls-1" d="M120.93,13.59c-.48-.26-.84-.64-1.1-1.13s-.39-1.06-.39-1.71.12-1.25.36-1.77c.24-.52.59-.92,1.05-1.21s1.01-.44,1.64-.44,1.12.13,1.54.38.73.6.95,1.04c.22.44.32.93.32,1.49,0,.18-.02.37-.02.55h-4.96s0-.73,0-.73h3.66c0-.63-.13-1.11-.4-1.45-.27-.33-.65-.5-1.15-.5s-.92.2-1.21.61c-.3.41-.44,1.02-.44,1.85,0,.54.11.99.32,1.35.21.36.49.63.85.79.35.16.75.25,1.2.25.58,0,1.18-.12,1.82-.37l.24.49c-.28.22-.64.42-1.08.61-.44.19-.95.28-1.54.28-.62,0-1.17-.13-1.65-.39Z"/>
    <path class="cls-1" d="M126.84,13.54c-.35-.28-.52-.66-.52-1.14,0-.35.12-.67.36-.95.24-.28.66-.54,1.25-.76.59-.22,1.41-.4,2.45-.53v.6c-.71.14-1.27.29-1.68.45-.41.16-.69.34-.83.52-.15.18-.22.37-.22.58,0,.26.09.46.26.59.18.13.41.19.71.19.26,0,.53-.05.79-.16.26-.11.55-.28.85-.52l.28.47-.11.08c-.38.32-.74.57-1.08.74-.34.18-.72.26-1.16.26-.54,0-.99-.14-1.34-.42ZM130.34,13.65c-.18-.19-.28-.46-.28-.81v-3.41c0-.47-.1-.81-.29-1.01-.19-.2-.48-.31-.85-.31-.26,0-.47.04-.63.11s-.3.17-.4.29c-.1.12-.18.28-.23.46l-.14.5h-.68l-.26-1.72c.51-.12.99-.22,1.43-.3.44-.08.87-.12,1.28-.12.64,0,1.15.17,1.53.5.38.34.57.87.57,1.61v2.87c0,.26.03.45.1.55.06.1.18.18.34.22l.5.12v.49l-.12.04c-.19.05-.39.09-.59.13-.2.04-.38.06-.52.06-.31,0-.56-.09-.74-.28Z"/>
    <path class="cls-1" d="M132.95,13.17l.67-.08c.18-.03.3-.09.36-.17.06-.08.1-.22.1-.41v-3.65c0-.17-.03-.3-.1-.38-.07-.09-.19-.14-.35-.17l-.67-.08v-.56l2.33-.3v1.2l-.23-.13c.42-.26.87-.51,1.35-.73.48-.22.93-.34,1.35-.34.54,0,.95.16,1.24.49s.43.8.43,1.4v3.25c0,.19.03.33.08.41s.17.14.35.16l.67.1v.64h-3.53v-.64l.65-.1c.17-.02.29-.08.35-.16.07-.08.1-.22.1-.41v-2.94c0-.39-.08-.68-.25-.88s-.42-.29-.77-.29c-.22,0-.49.04-.79.12-.3.08-.6.18-.88.31v3.67c0,.19.03.33.08.41.06.08.17.14.34.16l.67.1v.64h-3.55v-.64ZM140.99,13.17l.66-.1c.18-.02.3-.08.36-.16.06-.08.1-.22.1-.41v-2.94c0-.39-.08-.68-.25-.88-.17-.19-.42-.29-.76-.29-.24,0-.53.05-.86.14-.33.09-.66.21-.99.37l-.13-.54.22-.13c.42-.25.83-.46,1.24-.62s.8-.25,1.17-.25c.53,0,.94.16,1.24.49.3.33.44.81.44,1.45v3.2c0,.19.03.33.09.41.06.08.18.14.35.17l.6.08v.64h-3.48v-.64Z"/>
  </g>
</svg>