<?xml version="1.0" encoding="UTF-8"?>
<svg id="Layer_1" data-name="Layer 1" xmlns="http://www.w3.org/2000/svg" viewBox="0 0 245 19.5">
  <defs>
    <style>
      .cls-1 {
        fill: #f18629;
      }
    </style>
  </defs>
  <path class="cls-1" d="M16.26,9.96c.14,7.33-7.54,10.88-12.63,5.33C-1.29,10.22,1.62,1.79,8.95,1.68c4.45-.09,7.5,4.18,7.31,8.27h0ZM16.06,9.96c-.11-5.55-7.75-8.05-11.54-4.43C.08,9.62,2.6,16.96,8.95,16.33c3.35-.25,7.13-2.58,7.11-6.37h0Z"/>
  <g>
    <path class="cls-1" d="M55.17,7.05c-.11-.11-.3-.2-.58-.27l-.26-.06v-.71h3.58v.71l-.78.11c-.14.02-.23.06-.28.12-.05.06-.08.13-.08.22,0,.08.03.22.08.41l1.72,6.04h-.32s1.79-5.86,1.79-5.86l-.08-.32c-.07-.21-.16-.36-.27-.44-.11-.09-.29-.16-.56-.2l-.31-.06v-.71h3.5v.71l-.76.13c-.12.02-.2.06-.25.11-.04.05-.07.12-.07.2,0,.07.03.22.1.46l1.62,5.96h-.31l1.61-5.58c.06-.21.11-.38.14-.51.03-.13.04-.24.04-.32s-.03-.15-.08-.2c-.05-.06-.15-.1-.29-.12l-.84-.13v-.71h3.35v.71l-.42.08c-.14.03-.25.08-.34.15-.09.07-.17.18-.25.32-.08.15-.16.37-.25.67l-1.6,5.15c-.11.34-.22.71-.32,1.09l-.16.49h-1.26l-1.64-5.82h.35s-1.34,4.21-1.34,4.21c-.06.18-.12.35-.17.52s-.09.34-.13.52c-.05.18-.1.37-.17.58h-1.31l-2.1-7.01c-.09-.3-.19-.51-.29-.62Z"/>
    <path class="cls-1" d="M66.32,13.88l.67-.08c.18-.03.3-.09.36-.17.06-.08.1-.22.1-.41v-3.65c0-.17-.03-.3-.1-.38-.07-.09-.19-.14-.35-.17l-.67-.08v-.56l2.46-.3v5.14c0,.19.03.33.09.42.06.09.17.15.34.18l.7.08v.64h-3.59v-.64ZM67.42,6.86c-.17-.16-.25-.37-.25-.62s.09-.45.26-.61.39-.24.65-.24.48.08.66.24.26.36.26.61-.09.46-.26.62-.39.24-.67.24-.49-.08-.66-.24Z"/>
    <path class="cls-1" d="M71.85,14.34c-.21-.24-.31-.57-.31-1v-4.31h-.94v-.55l.5-.18c.17-.06.3-.14.38-.23s.15-.22.19-.39l.28-.94h.9v1.49h1.76v.8h-1.76v4c0,.26.05.43.14.53s.22.14.39.14.36-.02.55-.07c.19-.05.37-.11.55-.18l.22.49c-.23.19-.53.37-.89.52-.36.16-.72.23-1.07.23-.38,0-.68-.12-.89-.36Z"/>
    <path class="cls-1" d="M75.46,13.88l.67-.08c.18-.03.31-.09.37-.17.06-.08.09-.22.09-.41v-6.61c0-.17-.03-.3-.1-.38s-.18-.14-.36-.17l-.67-.08v-.55l2.46-.31v4.21l-.34-.19c.53-.32,1.03-.58,1.5-.77.47-.19.9-.29,1.3-.29.56,0,.99.17,1.28.5s.44.81.44,1.45v3.2c0,.19.03.33.1.41.06.08.18.14.36.17l.59.08v.64h-3.47v-.64l.67-.1c.17-.02.28-.08.34-.16.06-.08.09-.22.09-.41v-2.94c0-.38-.08-.67-.25-.87-.17-.2-.41-.29-.73-.29-.27,0-.59.05-.95.14-.36.09-.67.19-.92.29v3.67c0,.19.03.33.09.41.06.08.17.14.34.16l.66.1v.64h-3.55v-.64Z"/>
    <path class="cls-1" d="M85.49,14.28c-.49-.28-.87-.67-1.13-1.17-.27-.5-.4-1.08-.4-1.73s.13-1.22.4-1.73c.27-.5.65-.9,1.13-1.18.49-.28,1.05-.42,1.69-.42s1.19.14,1.69.42.87.67,1.14,1.18c.27.5.4,1.08.4,1.73s-.13,1.23-.4,1.73c-.27.5-.65.89-1.14,1.17-.49.28-1.05.42-1.69.42s-1.2-.14-1.69-.42ZM88.15,13.64c.27-.17.47-.43.61-.8s.2-.84.2-1.43-.07-1.08-.21-1.45-.34-.65-.61-.83c-.26-.18-.58-.27-.96-.27s-.71.08-.97.25-.46.43-.6.8c-.14.36-.2.84-.2,1.43s.07,1.09.2,1.46c.14.37.34.65.6.83.26.18.59.27.97.27s.7-.08.97-.25Z"/>
    <path class="cls-1" d="M92.81,14.16c-.32-.34-.48-.84-.48-1.5v-3.1c0-.17-.03-.3-.1-.38-.07-.09-.19-.14-.35-.17l-.68-.08v-.56l2.46-.3v4.04c0,.56.09.96.28,1.19.18.23.46.35.84.35.26,0,.55-.05.89-.14.34-.1.66-.21.95-.35l-.18.28v-3.86c0-.17-.03-.3-.1-.38s-.19-.14-.35-.17l-.67-.08v-.56l2.45-.3v4.98c0,.26.03.45.1.55.06.1.18.18.34.22l.52.12v.49c-.22.06-.45.12-.67.16-.22.04-.41.07-.58.07-.29,0-.52-.08-.68-.23-.17-.15-.26-.36-.28-.61-.47.28-.9.49-1.27.64-.38.15-.76.22-1.16.22-.51,0-.93-.17-1.25-.52Z"/>
    <path class="cls-1" d="M100.64,14.34c-.21-.24-.31-.57-.31-1v-4.31h-.94v-.55l.5-.18c.17-.06.3-.14.38-.23s.15-.22.19-.39l.28-.94h.9v1.49h1.76v.8h-1.76v4c0,.26.05.43.14.53s.22.14.39.14.36-.02.55-.07c.19-.05.37-.11.55-.18l.22.49c-.23.19-.53.37-.89.52-.36.16-.72.23-1.07.23-.38,0-.68-.12-.89-.36Z"/>
    <path class="cls-1" d="M109.05,14.22c-.63-.35-1.12-.85-1.46-1.51-.34-.66-.51-1.45-.51-2.38s.17-1.73.52-2.42c.34-.68.83-1.21,1.47-1.58s1.39-.56,2.26-.56c.5,0,.97.05,1.43.14.46.1.81.2,1.06.3v2.56h-.66l-.25-.88c-.05-.3-.14-.53-.27-.71-.13-.18-.31-.32-.55-.41-.23-.09-.53-.14-.89-.14-.5,0-.95.12-1.34.36-.39.24-.7.62-.93,1.15-.23.52-.35,1.2-.35,2.02,0,.89.12,1.61.36,2.16.24.55.56.95.96,1.19.4.24.86.36,1.37.36.38,0,.68-.05.92-.14.24-.09.43-.23.56-.43.14-.19.23-.43.29-.72l.23-.96h.64v2.64c-.3.13-.67.24-1.11.33-.44.09-.93.14-1.47.14-.89,0-1.65-.17-2.28-.52Z"/>
    <path class="cls-1" d="M116.68,14.28c-.49-.28-.87-.67-1.13-1.17-.27-.5-.4-1.08-.4-1.73s.13-1.22.4-1.73c.27-.5.65-.9,1.13-1.18.49-.28,1.05-.42,1.69-.42s1.19.14,1.69.42.87.67,1.14,1.18c.27.5.4,1.08.4,1.73s-.13,1.23-.4,1.73c-.27.5-.65.89-1.14,1.17-.49.28-1.05.42-1.69.42s-1.2-.14-1.69-.42ZM119.34,13.64c.27-.17.47-.43.61-.8s.2-.84.2-1.43-.07-1.08-.21-1.45-.34-.65-.61-.83c-.26-.18-.58-.27-.96-.27s-.71.08-.97.25-.46.43-.6.8c-.14.36-.2.84-.2,1.43s.07,1.09.2,1.46c.14.37.34.65.6.83.26.18.59.27.97.27s.7-.08.97-.25Z"/>
    <path class="cls-1" d="M124.34,14.31c-.47-.26-.84-.64-1.1-1.14s-.39-1.09-.39-1.76.13-1.25.4-1.76c.27-.51.64-.9,1.1-1.18s.99-.42,1.58-.42c.5,0,.93.06,1.31.19.38.13.7.26.95.41l-.44,2.02h-.59l-.14-.71c-.08-.37-.2-.65-.37-.84-.17-.19-.45-.29-.84-.29-.28,0-.54.09-.79.27s-.45.44-.59.79c-.15.34-.22.75-.22,1.22,0,.53.09.98.28,1.37.19.38.45.68.79.89s.73.31,1.19.31c.28,0,.54-.03.79-.09.25-.06.51-.15.78-.27l.24.49c-.14.14-.32.27-.55.4-.23.13-.49.25-.8.34-.3.1-.62.14-.96.14-.62,0-1.16-.13-1.63-.39Z"/>
    <path class="cls-1" d="M130.82,14.28c-.49-.28-.87-.67-1.13-1.17-.27-.5-.4-1.08-.4-1.73s.13-1.22.4-1.73c.27-.5.65-.9,1.13-1.18.49-.28,1.05-.42,1.69-.42s1.19.14,1.69.42.87.67,1.14,1.18c.27.5.4,1.08.4,1.73s-.13,1.23-.4,1.73c-.27.5-.65.89-1.14,1.17-.49.28-1.05.42-1.69.42s-1.2-.14-1.69-.42ZM133.48,13.64c.27-.17.47-.43.61-.8s.2-.84.2-1.43-.07-1.08-.21-1.45-.34-.65-.61-.83c-.26-.18-.58-.27-.96-.27s-.71.08-.97.25-.46.43-.6.8c-.14.36-.2.84-.2,1.43s.07,1.09.2,1.46c.14.37.34.65.6.83.26.18.59.27.97.27s.7-.08.97-.25Z"/>
    <path class="cls-1" d="M136.77,13.88l.67-.08c.18-.03.3-.09.36-.17.06-.08.1-.22.1-.41v-3.65c0-.17-.03-.3-.1-.38-.07-.09-.19-.14-.35-.17l-.67-.08v-.56l2.33-.3v1.34l-.35-.24.29-.14c.38-.21.71-.38,1-.52s.58-.24.85-.32c.28-.08.54-.12.8-.12.55,0,.98.17,1.27.5s.44.81.44,1.45v3.2c0,.19.03.33.09.41.06.08.18.14.37.17l.58.08v.64h-3.46v-.64l.66-.1c.17-.02.28-.08.35-.16s.1-.22.1-.41v-2.94c0-.39-.08-.68-.25-.88s-.41-.29-.73-.29c-.28,0-.6.05-.95.14-.36.09-.66.19-.92.29v3.67c0,.19.03.33.08.41.06.08.17.14.34.16l.67.1v.64h-3.55v-.64Z"/>
    <path class="cls-1" d="M146.42,14.16c-.32-.34-.48-.84-.48-1.5v-3.1c0-.17-.03-.3-.1-.38-.07-.09-.19-.14-.35-.17l-.68-.08v-.56l2.46-.3v4.04c0,.56.09.96.28,1.19.18.23.46.35.84.35.26,0,.55-.05.89-.14.34-.1.66-.21.95-.35l-.18.28v-3.86c0-.17-.03-.3-.1-.38s-.19-.14-.35-.17l-.67-.08v-.56l2.45-.3v4.98c0,.26.03.45.1.55.06.1.18.18.34.22l.52.12v.49c-.22.06-.45.12-.67.16-.22.04-.41.07-.58.07-.29,0-.52-.08-.68-.23-.17-.15-.26-.36-.28-.61-.47.28-.9.49-1.27.64-.38.15-.76.22-1.16.22-.51,0-.93-.17-1.25-.52Z"/>
    <path class="cls-1" d="M154.24,14.34c-.21-.24-.31-.57-.31-1v-4.31h-.94v-.55l.5-.18c.17-.06.3-.14.38-.23s.15-.22.19-.39l.28-.94h.9v1.49h1.76v.8h-1.76v4c0,.26.05.43.14.53s.22.14.39.14.36-.02.55-.07c.19-.05.37-.11.55-.18l.22.49c-.23.19-.53.37-.89.52-.36.16-.72.23-1.07.23-.38,0-.68-.12-.89-.36Z"/>
    <path class="cls-1" d="M162.59,14.21c-.6-.36-1.06-.87-1.4-1.54s-.5-1.47-.5-2.4.17-1.72.5-2.4c.33-.68.8-1.2,1.39-1.55.6-.36,1.29-.53,2.07-.53s1.47.18,2.07.54c.6.36,1.06.88,1.39,1.55.33.68.49,1.47.49,2.39s-.17,1.72-.5,2.39c-.33.68-.79,1.19-1.39,1.55-.59.36-1.28.53-2.06.53s-1.46-.18-2.06-.53ZM165.96,13.53c.37-.23.65-.61.85-1.14.2-.53.3-1.22.3-2.08s-.1-1.53-.3-2.08c-.2-.55-.48-.95-.85-1.21-.37-.26-.81-.38-1.32-.38s-.95.12-1.31.37c-.36.24-.65.63-.85,1.16-.2.53-.31,1.21-.31,2.05s.1,1.54.31,2.09.49.94.85,1.19c.36.25.8.38,1.31.38s.95-.12,1.32-.35Z"/>
    <path class="cls-1" d="M169.56,13.88l.67-.08c.18-.03.3-.09.36-.17.06-.08.1-.22.1-.41v-3.65c0-.17-.03-.3-.1-.38-.07-.09-.19-.14-.35-.17l-.67-.08v-.56l2.46-.3v5.14c0,.19.03.33.09.42.06.09.17.15.34.18l.7.08v.64h-3.59v-.64ZM170.67,6.86c-.17-.16-.25-.37-.25-.62s.09-.45.26-.61.39-.24.65-.24.48.08.66.24.26.36.26.61-.09.46-.26.62-.39.24-.67.24-.49-.08-.66-.24Z"/>
    <path class="cls-1" d="M173.74,13.88l.67-.08c.18-.03.31-.09.37-.17.06-.08.09-.22.09-.41v-6.61c0-.17-.03-.3-.1-.38s-.18-.14-.36-.17l-.67-.08v-.55l2.46-.31v8.11c0,.19.03.33.09.41.06.08.18.14.35.17l.68.08v.64h-3.59v-.64Z"/>
  </g>
</svg>