<?xml version="1.0" encoding="UTF-8"?>
<svg id="Layer_1" data-name="Layer 1" xmlns="http://www.w3.org/2000/svg" viewBox="0 0 245 19.5">
  <defs>
    <style>
      .cls-1 {
        fill: #f18629;
      }

      .cls-2 {
        fill: none;
        stroke: #f18629;
        stroke-miterlimit: 10;
        stroke-width: .5px;
      }
    </style>
  </defs>
  <rect class="cls-2" x="2.97" y="5.11" width="14" height="10"/>
  <g>
    <path class="cls-1" d="M55.72,13.78l.82-.11c.13-.02.23-.06.29-.1.07-.04.11-.11.14-.2.02-.09.04-.23.04-.41v-1.69c0-1.26,0-2.52.01-3.77,0-.18-.01-.31-.04-.4-.03-.09-.07-.15-.13-.19-.06-.03-.15-.06-.27-.08l-.79-.14v-.71h2.78l4.37,7.25-.3.07v-5.8c0-.25-.03-.42-.09-.52-.06-.1-.19-.16-.39-.18l-.9-.12v-.71h3.37v.71l-.53.08c-.14.02-.25.06-.31.1-.06.04-.1.11-.13.2-.02.09-.04.23-.04.43v6.98h-1.51l-4.42-7.37.3-.08v5.92c0,.26.03.43.08.52s.18.15.39.17l1,.13v.71h-3.74v-.71Z"/>
    <path class="cls-1" d="M66.82,14.25c-.49-.28-.87-.67-1.13-1.17-.27-.5-.4-1.08-.4-1.73s.13-1.22.4-1.73c.27-.5.65-.9,1.13-1.18.49-.28,1.05-.42,1.69-.42s1.19.14,1.69.42.87.67,1.14,1.18c.27.5.4,1.08.4,1.73s-.13,1.23-.4,1.73c-.27.5-.65.89-1.14,1.17-.49.28-1.05.42-1.69.42s-1.2-.14-1.69-.42ZM69.48,13.62c.27-.17.47-.43.61-.8s.2-.84.2-1.43-.07-1.08-.21-1.45-.34-.65-.61-.83c-.26-.18-.58-.27-.96-.27s-.71.08-.97.25-.46.43-.6.8c-.14.36-.2.84-.2,1.43s.07,1.09.2,1.46c.14.37.34.65.6.83.26.18.59.27.97.27s.7-.08.97-.25Z"/>
    <path class="cls-1" d="M72.77,13.86l.67-.08c.18-.03.3-.09.36-.17.06-.08.1-.22.1-.41v-3.65c0-.17-.03-.3-.1-.38-.07-.09-.19-.14-.35-.17l-.67-.08v-.56l2.39-.3-.07,1.62h.11c.22-.31.49-.6.8-.87.31-.27.61-.49.92-.67h.88v1.45h-1.06c-.24,0-.49.08-.76.23-.26.16-.51.37-.74.63v2.75c0,.19.03.33.1.42s.17.14.32.16l.89.11v.62h-3.77v-.64Z"/>
    <path class="cls-1" d="M78.62,13.86l.67-.08c.18-.03.3-.09.36-.17.06-.08.1-.22.1-.41v-3.65c0-.17-.03-.3-.1-.38-.07-.09-.19-.14-.35-.17l-.67-.08v-.56l2.33-.3v1.2l-.23-.13c.42-.26.87-.51,1.35-.73.48-.22.93-.34,1.35-.34.54,0,.95.16,1.24.49s.43.8.43,1.4v3.25c0,.19.03.33.08.41s.17.14.35.16l.67.1v.64h-3.53v-.64l.65-.1c.17-.02.29-.08.35-.16.07-.08.1-.22.1-.41v-2.94c0-.39-.08-.68-.25-.88s-.42-.29-.77-.29c-.22,0-.49.04-.79.12-.3.08-.6.18-.88.31v3.67c0,.19.03.33.08.41.06.08.17.14.34.16l.67.1v.64h-3.55v-.64ZM86.66,13.86l.66-.1c.18-.02.3-.08.36-.16.06-.08.1-.22.1-.41v-2.94c0-.39-.08-.68-.25-.88-.17-.19-.42-.29-.76-.29-.24,0-.53.05-.86.14-.33.09-.66.21-.99.37l-.13-.54.22-.13c.42-.25.83-.46,1.24-.62s.8-.25,1.17-.25c.53,0,.94.16,1.24.49.3.33.44.81.44,1.45v3.2c0,.19.03.33.09.41.06.08.18.14.35.17l.6.08v.64h-3.48v-.64Z"/>
    <path class="cls-1" d="M91.29,14.23c-.35-.28-.52-.66-.52-1.14,0-.35.12-.67.36-.95.24-.28.66-.54,1.25-.76.59-.22,1.41-.4,2.45-.53v.6c-.71.14-1.27.29-1.68.45-.41.16-.69.34-.83.52-.15.18-.22.37-.22.58,0,.26.09.46.26.59.18.13.41.19.71.19.26,0,.53-.05.79-.16.26-.11.55-.28.85-.52l.28.47-.11.08c-.38.32-.74.57-1.08.74-.34.18-.72.26-1.16.26-.54,0-.99-.14-1.34-.42ZM94.79,14.34c-.18-.19-.28-.46-.28-.81v-3.41c0-.47-.1-.81-.29-1.01-.19-.2-.48-.31-.85-.31-.26,0-.47.04-.63.11s-.3.17-.4.29c-.1.12-.18.28-.23.46l-.14.5h-.68l-.26-1.72c.51-.12.99-.22,1.43-.3.44-.08.87-.12,1.28-.12.64,0,1.15.17,1.53.5.38.34.57.87.57,1.61v2.87c0,.26.03.45.1.55.06.1.18.18.34.22l.5.12v.49l-.12.04c-.19.05-.39.09-.59.13-.2.04-.38.06-.52.06-.31,0-.56-.09-.74-.28Z"/>
    <path class="cls-1" d="M97.35,13.86l.67-.08c.18-.03.31-.09.37-.17.06-.08.09-.22.09-.41v-6.61c0-.17-.03-.3-.1-.38s-.18-.14-.36-.17l-.67-.08v-.55l2.46-.31v8.11c0,.19.03.33.09.41.06.08.18.14.35.17l.68.08v.64h-3.59v-.64Z"/>
    <path class="cls-1" d="M106.06,14.5c-.54-.13-1.02-.28-1.45-.45v-2.66h.67l.3,1.08c.08.32.19.58.34.78s.36.35.64.46c.28.1.66.16,1.12.16.39,0,.72-.06,1-.18.27-.12.48-.27.62-.46.14-.19.21-.39.21-.59,0-.3-.1-.58-.29-.83s-.49-.47-.89-.64l-1.9-.86c-.56-.26-1-.58-1.32-.95-.32-.37-.48-.81-.48-1.33,0-.41.11-.78.34-1.11.23-.33.58-.6,1.04-.8.47-.2,1.05-.3,1.75-.3.5,0,.99.04,1.45.13.46.09.87.19,1.21.31v2.42h-.66l-.31-1.07c-.1-.34-.29-.59-.56-.74-.27-.15-.68-.22-1.24-.22s-.97.1-1.24.31c-.28.21-.41.47-.41.78,0,.28.11.53.32.76.21.22.54.44.98.65l1.87.88c.34.16.64.34.9.55s.46.46.61.76c.15.3.23.65.23,1.06s-.12.81-.37,1.17c-.24.36-.61.64-1.1.85-.49.21-1.08.31-1.79.31-.52,0-1.05-.07-1.59-.2Z"/>
    <path class="cls-1" d="M111.88,13.86l.67-.08c.18-.03.31-.09.37-.17.06-.08.09-.22.09-.41v-6.61c0-.17-.03-.3-.1-.38s-.18-.14-.36-.17l-.67-.08v-.55l2.46-.31v8.11c0,.19.03.33.09.41.06.08.18.14.35.17l.68.08v.64h-3.59v-.64ZM114.67,11.09l1.58-1.62c.14-.14.23-.25.29-.31.06-.06.08-.1.08-.13,0-.03-.02-.05-.05-.06s-.1-.02-.19-.04h-.05s-.52-.11-.52-.11v-.64h3.14v.64l-.44.06c-.26.04-.57.18-.91.43s-.84.7-1.5,1.34c-.04.03-.06.06-.06.08,0,.04.04.11.11.21.08.1.21.26.41.47l1.56,1.91c.09.11.19.2.31.28.12.07.24.12.37.14l.47.08v.64h-1.9l-2.71-3.4Z"/>
    <path class="cls-1" d="M119.83,13.86l.67-.08c.18-.03.3-.09.36-.17.06-.08.1-.22.1-.41v-3.65c0-.17-.03-.3-.1-.38-.07-.09-.19-.14-.35-.17l-.67-.08v-.56l2.46-.3v5.14c0,.19.03.33.09.42.06.09.17.15.34.18l.7.08v.64h-3.59v-.64ZM120.94,6.83c-.17-.16-.25-.37-.25-.62s.09-.45.26-.61.39-.24.65-.24.48.08.66.24.26.36.26.61-.09.46-.26.62-.39.24-.67.24-.49-.08-.66-.24Z"/>
    <path class="cls-1" d="M124.18,13.86l.67-.08c.18-.03.3-.09.36-.17.06-.08.1-.22.1-.41v-3.65c0-.17-.03-.3-.1-.38-.07-.09-.19-.14-.35-.17l-.67-.08v-.56l2.33-.3v1.34l-.35-.24.29-.14c.38-.21.71-.38,1-.52s.58-.24.85-.32c.28-.08.54-.12.8-.12.55,0,.98.17,1.27.5s.44.81.44,1.45v3.2c0,.19.03.33.09.41.06.08.18.14.37.17l.58.08v.64h-3.46v-.64l.66-.1c.17-.02.28-.08.35-.16s.1-.22.1-.41v-2.94c0-.39-.08-.68-.25-.88s-.41-.29-.73-.29c-.28,0-.6.05-.95.14-.36.09-.66.19-.92.29v3.67c0,.19.03.33.08.41.06.08.17.14.34.16l.67.1v.64h-3.55v-.64Z"/>
  </g>
</svg>