<?xml version="1.0" encoding="UTF-8"?>
<svg id="Layer_1" data-name="Layer 1" xmlns="http://www.w3.org/2000/svg" viewBox="0 0 245 19.5">
  <defs>
    <style>
      .cls-1 {
        fill: #f18629;
      }

      .cls-2 {
        stroke-width: .25px;
      }

      .cls-2, .cls-3 {
        fill: none;
        stroke: #f18629;
        stroke-miterlimit: 10;
      }

      .cls-3 {
        stroke-width: .5px;
      }
    </style>
  </defs>
  <path class="cls-3" d="M12.04,16.04c-.41.39-.98.59-1.72.59s-1.32-.2-1.72-.59c-.41-.39-.61-.92-.61-1.59s.2-1.2.61-1.58c.41-.39.98-.58,1.72-.58s1.31.19,1.72.58c.41.39.61.92.61,1.58s-.2,1.2-.61,1.59ZM8.11,9.13v-1.06l8.32,5.14v1.06l-8.32-5.14ZM11.95,14.09c-.08-.09-.25-.17-.51-.22-.25-.05-.62-.08-1.11-.08s-.86.03-1.12.08c-.25.06-.43.13-.52.22-.09.09-.14.21-.14.37,0,.15.04.27.13.37.09.09.26.17.5.22.25.06.61.08,1.1.08s.86-.03,1.12-.08c.26-.05.43-.13.53-.22.09-.09.14-.22.14-.37s-.04-.27-.13-.37ZM15.95,9.46c-.41.39-.98.59-1.72.59s-1.32-.2-1.72-.59-.61-.92-.61-1.59.2-1.2.61-1.58c.41-.39.98-.58,1.72-.58s1.31.19,1.72.58c.41.39.61.92.61,1.58s-.2,1.2-.61,1.59ZM15.86,7.5c-.08-.09-.25-.17-.51-.22-.25-.05-.63-.08-1.12-.08s-.86.03-1.12.08c-.25.06-.43.13-.52.22-.09.09-.14.21-.14.37,0,.15.04.27.13.37.09.09.26.17.5.22.25.06.61.08,1.1.08s.86-.03,1.12-.08c.26-.05.43-.13.53-.22.09-.09.14-.22.14-.37s-.04-.27-.13-.37Z"/>
  <path class="cls-2" d="M9.95,3.8h2.39v12.41H2.2v-4.66c0-4.28,3.47-7.75,7.75-7.75Z"/>
  <g>
    <path class="cls-1" d="M54.86,14l.82-.11c.13-.02.23-.06.29-.1.07-.04.11-.11.14-.2.02-.09.04-.23.04-.41v-1.69c0-1.26,0-2.52.01-3.77,0-.18-.01-.31-.04-.4-.03-.09-.07-.15-.13-.19-.06-.03-.15-.06-.27-.08l-.79-.14v-.71h2.78l4.37,7.25-.3.07v-5.8c0-.25-.03-.42-.09-.52-.06-.1-.19-.16-.39-.18l-.9-.12v-.71h3.37v.71l-.53.08c-.14.02-.25.06-.31.1-.06.04-.1.11-.13.2-.02.09-.04.23-.04.43v6.98h-1.51l-4.42-7.37.3-.08v5.92c0,.26.03.43.08.52s.18.15.39.17l1,.13v.71h-3.74v-.71Z"/>
    <path class="cls-1" d="M64.9,14.45c-.35-.28-.52-.66-.52-1.14,0-.35.12-.67.36-.95.24-.28.66-.54,1.25-.76.59-.22,1.41-.4,2.45-.53v.6c-.71.14-1.27.29-1.68.45-.41.16-.69.34-.83.52-.15.18-.22.37-.22.58,0,.26.09.46.26.59.18.13.41.19.71.19.26,0,.53-.05.79-.16.26-.11.55-.28.85-.52l.28.47-.11.08c-.38.32-.74.57-1.08.74-.34.18-.72.26-1.16.26-.54,0-.99-.14-1.34-.42ZM68.4,14.56c-.18-.19-.28-.46-.28-.81v-3.41c0-.47-.1-.81-.29-1.01-.19-.2-.48-.31-.85-.31-.26,0-.47.04-.63.11s-.3.17-.4.29c-.1.12-.18.28-.23.46l-.14.5h-.68l-.26-1.72c.51-.12.99-.22,1.43-.3.44-.08.87-.12,1.28-.12.64,0,1.15.17,1.53.5.38.34.57.87.57,1.61v2.87c0,.26.03.45.1.55.06.1.18.18.34.22l.5.12v.49l-.12.04c-.19.05-.39.09-.59.13-.2.04-.38.06-.52.06-.31,0-.56-.09-.74-.28Z"/>
    <path class="cls-1" d="M72.31,14.53c-.21-.24-.31-.57-.31-1v-4.31h-.94v-.55l.5-.18c.17-.06.3-.14.38-.23s.15-.22.19-.39l.28-.94h.9v1.49h1.76v.8h-1.76v4c0,.26.05.43.14.53s.22.14.39.14.36-.02.55-.07c.19-.05.37-.11.55-.18l.22.49c-.23.19-.53.37-.89.52-.36.16-.72.23-1.07.23-.38,0-.68-.12-.89-.36Z"/>
    <path class="cls-1" d="M77.43,14.35c-.32-.34-.48-.84-.48-1.5v-3.1c0-.17-.03-.3-.1-.38-.07-.09-.19-.14-.35-.17l-.68-.08v-.56l2.46-.3v4.04c0,.56.09.96.28,1.19.18.23.46.35.84.35.26,0,.55-.05.89-.14.34-.1.66-.21.95-.35l-.18.28v-3.86c0-.17-.03-.3-.1-.38s-.19-.14-.35-.17l-.67-.08v-.56l2.45-.3v4.98c0,.26.03.45.1.55.06.1.18.18.34.22l.52.12v.49c-.22.06-.45.12-.67.16-.22.04-.41.07-.58.07-.29,0-.52-.08-.68-.23-.17-.15-.26-.36-.28-.61-.47.28-.9.49-1.27.64-.38.15-.76.22-1.16.22-.51,0-.93-.17-1.25-.52Z"/>
    <path class="cls-1" d="M84.14,14.08l.67-.08c.18-.03.3-.09.36-.17.06-.08.1-.22.1-.41v-3.65c0-.17-.03-.3-.1-.38-.07-.09-.19-.14-.35-.17l-.67-.08v-.56l2.39-.3-.07,1.62h.11c.22-.31.49-.6.8-.87.31-.27.61-.49.92-.67h.88v1.45h-1.06c-.24,0-.49.08-.76.23-.26.16-.51.37-.74.63v2.75c0,.19.03.33.1.42s.17.14.32.16l.89.11v.62h-3.77v-.64Z"/>
    <path class="cls-1" d="M90.13,14.45c-.35-.28-.52-.66-.52-1.14,0-.35.12-.67.36-.95.24-.28.66-.54,1.25-.76.59-.22,1.41-.4,2.45-.53v.6c-.71.14-1.27.29-1.68.45-.41.16-.69.34-.83.52-.15.18-.22.37-.22.58,0,.26.09.46.26.59.18.13.41.19.71.19.26,0,.53-.05.79-.16.26-.11.55-.28.85-.52l.28.47-.11.08c-.38.32-.74.57-1.08.74-.34.18-.72.26-1.16.26-.54,0-.99-.14-1.34-.42ZM93.63,14.56c-.18-.19-.28-.46-.28-.81v-3.41c0-.47-.1-.81-.29-1.01-.19-.2-.48-.31-.85-.31-.26,0-.47.04-.63.11s-.3.17-.4.29c-.1.12-.18.28-.23.46l-.14.5h-.68l-.26-1.72c.51-.12.99-.22,1.43-.3.44-.08.87-.12,1.28-.12.64,0,1.15.17,1.53.5.38.34.57.87.57,1.61v2.87c0,.26.03.45.1.55.06.1.18.18.34.22l.5.12v.49l-.12.04c-.19.05-.39.09-.59.13-.2.04-.38.06-.52.06-.31,0-.56-.09-.74-.28Z"/>
    <path class="cls-1" d="M96.19,14.08l.67-.08c.18-.03.31-.09.37-.17.06-.08.09-.22.09-.41v-6.61c0-.17-.03-.3-.1-.38s-.18-.14-.36-.17l-.67-.08v-.55l2.46-.31v8.11c0,.19.03.33.09.41.06.08.18.14.35.17l.68.08v.64h-3.59v-.64Z"/>
    <path class="cls-1" d="M103.08,14l.82-.11c.19-.03.32-.09.37-.17.06-.08.08-.24.08-.47v-5.62c0-.23-.03-.39-.08-.46-.06-.08-.18-.13-.37-.16l-.82-.11v-.71h3.95v.71l-.83.11c-.13.02-.22.04-.29.08s-.11.09-.13.17c-.02.08-.04.2-.04.37v5.62c0,.23.03.39.08.47.05.08.17.14.37.17l.84.11v.71h-3.95v-.71Z"/>
    <path class="cls-1" d="M107.84,14.08l.67-.08c.18-.03.3-.09.36-.17.06-.08.1-.22.1-.41v-3.65c0-.17-.03-.3-.1-.38-.07-.09-.19-.14-.35-.17l-.67-.08v-.56l2.33-.3v1.34l-.35-.24.29-.14c.38-.21.71-.38,1-.52s.58-.24.85-.32c.28-.08.54-.12.8-.12.55,0,.98.17,1.27.5s.44.81.44,1.45v3.2c0,.19.03.33.09.41.06.08.18.14.37.17l.58.08v.64h-3.46v-.64l.66-.1c.17-.02.28-.08.35-.16s.1-.22.1-.41v-2.94c0-.39-.08-.68-.25-.88s-.41-.29-.73-.29c-.28,0-.6.05-.95.14-.36.09-.66.19-.92.29v3.67c0,.19.03.33.08.41.06.08.17.14.34.16l.67.1v.64h-3.55v-.64Z"/>
    <path class="cls-1" d="M117.51,17.53c-.45-.19-.79-.44-1.01-.74s-.34-.62-.37-.97l.95-1.12.46.24c-.09.1-.16.23-.22.37-.06.14-.09.3-.09.46,0,.26.07.48.22.67.15.19.38.34.71.44.32.11.74.16,1.25.16s.95-.06,1.28-.17c.33-.11.57-.26.72-.44.15-.18.22-.39.22-.62,0-.2-.08-.35-.24-.46-.16-.11-.45-.16-.88-.16h-2.05c-.61,0-1.07-.11-1.39-.33-.32-.22-.47-.51-.47-.88,0-.3.1-.58.29-.83.19-.25.46-.52.8-.8l.49.28c-.17.14-.3.29-.4.43-.1.14-.14.28-.14.41,0,.19.08.33.24.42s.46.13.9.13h1.99c.74,0,1.25.14,1.54.41.29.28.44.6.44.98,0,.45-.15.85-.45,1.22-.3.36-.72.65-1.26.87s-1.15.32-1.84.32-1.25-.1-1.7-.29ZM117.75,12.56c-.42-.2-.75-.47-.97-.82-.22-.35-.34-.75-.34-1.19s.11-.86.33-1.2c.22-.34.54-.61.97-.81s.92-.29,1.49-.29,1.08.1,1.5.29c.42.19.75.46.97.81.22.35.34.75.34,1.21s-.11.84-.34,1.19c-.22.35-.55.63-.97.82-.42.2-.92.29-1.5.29s-1.05-.1-1.48-.29ZM120.01,11.99c.22-.11.38-.29.49-.52.11-.24.16-.53.16-.89s-.05-.69-.16-.93c-.11-.24-.27-.43-.49-.55s-.48-.18-.78-.18-.56.06-.77.17-.37.29-.47.53c-.11.24-.16.54-.16.92s.05.66.16.91c.11.24.27.42.47.54.21.12.46.17.77.17s.56-.06.78-.17ZM121.35,8.21c.24-.32.48-.57.7-.74h.78v1.16h-.44c-.25,0-.47.05-.65.14-.19.1-.35.24-.5.44l-.41.02-.07-.12c.15-.29.35-.59.59-.91Z"/>
    <path class="cls-1" d="M123.52,14.08l.67-.08c.18-.03.3-.09.36-.17.06-.08.1-.22.1-.41v-3.65c0-.17-.03-.3-.1-.38-.07-.09-.19-.14-.35-.17l-.67-.08v-.56l2.39-.3-.07,1.62h.11c.22-.31.49-.6.8-.87.31-.27.61-.49.92-.67h.88v1.45h-1.06c-.24,0-.49.08-.76.23-.26.16-.51.37-.74.63v2.75c0,.19.03.33.1.42s.17.14.32.16l.89.11v.62h-3.77v-.64Z"/>
    <path class="cls-1" d="M130.75,14.5c-.48-.26-.84-.64-1.1-1.13s-.39-1.06-.39-1.71.12-1.25.36-1.77c.24-.52.59-.92,1.05-1.21s1.01-.44,1.64-.44,1.12.13,1.54.38.73.6.95,1.04c.22.44.32.93.32,1.49,0,.18-.02.37-.02.55h-4.96s0-.73,0-.73h3.66c0-.63-.13-1.11-.4-1.45-.27-.33-.65-.5-1.15-.5s-.92.2-1.21.61c-.3.41-.44,1.02-.44,1.85,0,.54.11.99.32,1.35.21.36.49.63.85.79.35.16.75.25,1.2.25.58,0,1.18-.12,1.82-.37l.24.49c-.28.22-.64.42-1.08.61-.44.19-.95.28-1.54.28-.62,0-1.17-.13-1.65-.39Z"/>
    <path class="cls-1" d="M141.01,13.63l.25.14c-.38.38-.75.65-1.09.83-.34.18-.75.27-1.21.27-.53,0-.99-.12-1.39-.35-.4-.23-.7-.59-.92-1.07-.22-.48-.33-1.08-.33-1.8s.12-1.34.36-1.85c.24-.51.57-.9.98-1.16.42-.26.88-.4,1.4-.4.43,0,.83.09,1.19.26.36.18.66.4.89.68l-.26.14v-2.56c0-.16-.03-.29-.1-.38-.06-.09-.18-.15-.35-.17l-.68-.08v-.55l2.45-.31v8.09c0,.18.03.31.1.39.07.08.18.14.34.16l.68.08v.56l-2.33.3v-1.25ZM140.29,13.76c.27-.12.47-.24.61-.35v-3.78c-.13-.11-.33-.22-.62-.34s-.57-.17-.85-.17c-.54,0-.97.2-1.28.59-.31.39-.46,1-.46,1.81,0,.56.07,1.02.22,1.38.15.36.35.62.6.79s.55.25.91.25c.31,0,.6-.06.87-.18Z"/>
    <path class="cls-1" d="M144.01,14.08l.67-.08c.18-.03.3-.09.36-.17.06-.08.1-.22.1-.41v-3.65c0-.17-.03-.3-.1-.38-.07-.09-.19-.14-.35-.17l-.67-.08v-.56l2.46-.3v5.14c0,.19.03.33.09.42.06.09.17.15.34.18l.7.08v.64h-3.59v-.64ZM145.11,7.06c-.17-.16-.25-.37-.25-.62s.09-.45.26-.61.39-.24.65-.24.48.08.66.24.26.36.26.61-.09.46-.26.62-.39.24-.67.24-.49-.08-.66-.24Z"/>
    <path class="cls-1" d="M149.95,14.5c-.48-.26-.84-.64-1.1-1.13s-.39-1.06-.39-1.71.12-1.25.36-1.77c.24-.52.59-.92,1.05-1.21s1.01-.44,1.64-.44,1.12.13,1.54.38.73.6.95,1.04c.22.44.32.93.32,1.49,0,.18-.02.37-.02.55h-4.96s0-.73,0-.73h3.66c0-.63-.13-1.11-.4-1.45-.27-.33-.65-.5-1.15-.5s-.92.2-1.21.61c-.3.41-.44,1.02-.44,1.85,0,.54.11.99.32,1.35.21.36.49.63.85.79.35.16.75.25,1.2.25.58,0,1.18-.12,1.82-.37l.24.49c-.28.22-.64.42-1.08.61-.44.19-.95.28-1.54.28-.62,0-1.17-.13-1.65-.39Z"/>
    <path class="cls-1" d="M155.3,14.08l.67-.08c.18-.03.3-.09.36-.17.06-.08.1-.22.1-.41v-3.65c0-.17-.03-.3-.1-.38-.07-.09-.19-.14-.35-.17l-.67-.08v-.56l2.33-.3v1.34l-.35-.24.29-.14c.38-.21.71-.38,1-.52s.58-.24.85-.32c.28-.08.54-.12.8-.12.55,0,.98.17,1.27.5s.44.81.44,1.45v3.2c0,.19.03.33.09.41.06.08.18.14.37.17l.58.08v.64h-3.46v-.64l.66-.1c.17-.02.28-.08.35-.16s.1-.22.1-.41v-2.94c0-.39-.08-.68-.25-.88s-.41-.29-.73-.29c-.28,0-.6.05-.95.14-.36.09-.66.19-.92.29v3.67c0,.19.03.33.08.41.06.08.17.14.34.16l.67.1v.64h-3.55v-.64Z"/>
    <path class="cls-1" d="M164.71,14.53c-.21-.24-.31-.57-.31-1v-4.31h-.94v-.55l.5-.18c.17-.06.3-.14.38-.23s.15-.22.19-.39l.28-.94h.9v1.49h1.76v.8h-1.76v4c0,.26.05.43.14.53s.22.14.39.14.36-.02.55-.07c.19-.05.37-.11.55-.18l.22.49c-.23.19-.53.37-.89.52-.36.16-.72.23-1.07.23-.38,0-.68-.12-.89-.36Z"/>
    <path class="cls-1" d="M169.89,14.76c-.44-.09-.85-.21-1.25-.36v-1.81h.56l.25.43c.15.38.35.67.61.85.25.18.6.27,1.05.27s.78-.08,1-.24c.22-.16.33-.36.33-.61s-.05-.42-.16-.55c-.11-.12-.3-.25-.58-.37l-1.74-.71c-.39-.16-.7-.37-.92-.64-.22-.26-.33-.6-.33-1.02,0-.31.09-.6.26-.86.17-.26.44-.48.81-.65s.82-.25,1.36-.25c.67,0,1.4.11,2.2.32v1.75h-.59l-.23-.46c-.09-.18-.18-.34-.28-.46-.1-.12-.23-.22-.41-.29-.18-.07-.4-.1-.67-.1-.41,0-.71.07-.9.21-.19.14-.29.31-.29.5s.05.34.16.47c.11.13.3.25.58.37l1.73.71c.4.16.71.38.93.65.22.28.33.63.33,1.05,0,.35-.1.67-.31.96s-.51.52-.89.7c-.39.18-.84.26-1.36.26-.39,0-.81-.04-1.24-.13Z"/>
  </g>
</svg>