<?xml version="1.0" encoding="UTF-8"?>
<svg id="Layer_1" data-name="Layer 1" xmlns="http://www.w3.org/2000/svg" viewBox="0 0 245 19.5">
  <defs>
    <style>
      .cls-1 {
        fill: #f18629;
      }
    </style>
  </defs>
  <path class="cls-1" d="M19.61,14.16l.41-.12c.18-.07.35-.17.52-.31.17-.14.36-.31.57-.53l2.03-2.31-1.95-2.42c-.2-.23-.38-.4-.54-.54-.17-.13-.34-.23-.53-.29l-.29-.1v-.49h3.76v.47l-.68.16c-.14.02-.23.05-.29.1s-.08.1-.08.17c0,.06.02.12.07.19.04.07.11.16.2.26l1.32,1.63,1.18-1.62c.09-.1.15-.18.18-.25.03-.07.05-.14.05-.21s-.03-.12-.08-.17c-.05-.04-.15-.08-.27-.1l-.72-.16v-.49h3.45v.49l-.41.15c-.19.06-.36.15-.52.27-.16.12-.35.3-.57.54l-1.87,2.07,2.2,2.67c.2.24.37.42.54.54.16.13.34.22.54.28l.26.09v.5h-3.75v-.49l.66-.15c.13-.02.22-.05.26-.1.05-.05.07-.1.07-.16,0-.07-.02-.13-.05-.2-.03-.06-.1-.14-.18-.24l-1.53-1.9-1.34,1.85c-.09.12-.15.21-.19.27-.04.06-.06.13-.06.2s.03.12.09.17c.06.04.15.08.28.1l.72.16v.49h-3.47v-.5Z"/>
  <path class="cls-1" d="M16.35,10.47c.14,7.33-7.54,10.88-12.63,5.33C-1.2,10.74,1.71,2.31,9.04,2.2c4.45-.09,7.5,4.18,7.31,8.27h0ZM16.15,10.47c-.11-5.55-7.75-8.05-11.54-4.43-4.44,4.09-1.92,11.43,4.43,10.81,3.35-.25,7.13-2.58,7.11-6.37h0Z"/>
  <g>
    <path class="cls-1" d="M32.48,14.99c-.47-.17-.87-.4-1.22-.68l.22-1.92h.66c.11.56.24.98.4,1.26.15.28.34.48.57.59.23.11.52.17.88.17.49,0,.88-.14,1.17-.43s.44-.65.44-1.1c0-.49-.2-.87-.6-1.16-.4-.28-1.07-.43-2.02-.43v-.77c.44-.03.83-.12,1.16-.26.34-.14.6-.33.79-.55.19-.22.29-.47.29-.74,0-.33-.12-.59-.37-.78-.24-.19-.55-.29-.92-.29s-.72.09-1.05.26c-.33.18-.63.42-.88.74l-.62-.43c.3-.44.69-.82,1.17-1.15.48-.33,1.04-.49,1.69-.49.47,0,.89.08,1.24.24.36.16.63.39.83.68s.29.62.29.99c0,.31-.08.61-.25.91s-.44.55-.82.77c-.38.22-.85.39-1.43.49v-.19c.64,0,1.18.11,1.61.31.43.2.75.46.97.78s.32.67.32,1.04c0,.48-.14.9-.42,1.27-.28.36-.65.64-1.1.83-.46.19-.95.29-1.49.29s-1.04-.09-1.51-.26Z"/>
    <path class="cls-1" d="M57.78,14.33l1.1-.11c.18-.02.31-.08.37-.16s.1-.24.1-.49v-6.23h-1.1c-.25,0-.43.06-.54.16-.11.1-.2.27-.25.51l-.37,1.7h-.68v-3.19h7.27v3.19h-.67l-.37-1.7c-.05-.24-.13-.41-.25-.51-.12-.1-.3-.15-.55-.16h-1.09v6.23c0,.25.03.41.09.49.06.08.18.13.37.16l1.1.11v.71h-4.51v-.71Z"/>
    <path class="cls-1" d="M65.3,17.86c-.13-.02-.29-.04-.46-.07l.17-1.26h.13c.19.1.35.17.48.22s.24.07.35.07c.16,0,.3-.04.43-.12s.27-.24.43-.47c.16-.23.34-.56.55-1l-2.16-5.23c-.08-.18-.18-.32-.31-.4s-.27-.14-.43-.17l-.16-.04v-.64h3.12v.64l-.53.07c-.11.03-.19.07-.25.13-.05.05-.08.12-.08.2,0,.06.02.14.06.26s.09.26.14.43l1.27,3.32,1.25-3.14c.08-.19.15-.37.2-.52.05-.16.08-.27.08-.34,0-.08-.02-.15-.07-.2s-.13-.09-.26-.11l-.61-.08v-.64h2.77v.64l-.13.04c-.13.02-.24.06-.34.12-.1.06-.18.13-.25.23-.07.1-.13.22-.2.36l-2.02,4.58c-.42.94-.78,1.63-1.09,2.09-.31.46-.6.75-.85.88-.26.13-.55.2-.89.2-.11,0-.23,0-.37-.02Z"/>
    <path class="cls-1" d="M71.8,17.33l.68-.1c.17-.02.29-.08.35-.16.07-.08.1-.22.1-.41v-6.59c0-.17-.03-.29-.1-.38-.07-.08-.18-.14-.34-.16l-.68-.08v-.56l2.33-.3v1.3l-.31-.14.08-.08c.42-.36.81-.63,1.16-.8.35-.18.76-.26,1.23-.26s.92.12,1.3.35c.38.24.67.6.89,1.08.22.48.32,1.09.32,1.81s-.12,1.32-.36,1.84-.57.9-1,1.16c-.42.26-.9.4-1.43.4-.38,0-.76-.07-1.12-.2-.36-.14-.7-.32-1.01-.56l.35-.1v2.3c0,.2.03.34.1.42.07.08.19.13.35.16l.68.1v.64h-3.59v-.64ZM76.57,14.13c.26-.16.47-.43.62-.79.15-.36.22-.83.22-1.41s-.07-1.03-.21-1.39c-.14-.36-.34-.62-.59-.78-.25-.16-.54-.25-.86-.25-.26,0-.55.07-.85.2s-.57.29-.82.47l.16-.26v4.27l-.16-.24c.26.12.52.22.78.3s.52.12.78.12c.35,0,.66-.08.92-.25Z"/>
    <path class="cls-1" d="M81.56,14.83c-.48-.26-.84-.64-1.1-1.13s-.39-1.06-.39-1.71.12-1.25.36-1.77c.24-.52.59-.92,1.05-1.21s1.01-.44,1.64-.44,1.12.13,1.54.38.73.6.95,1.04c.22.44.32.93.32,1.49,0,.18-.02.37-.02.55h-4.96s0-.73,0-.73h3.66c0-.63-.13-1.11-.4-1.45-.27-.33-.65-.5-1.15-.5s-.92.2-1.21.61c-.3.41-.44,1.02-.44,1.85,0,.54.11.99.32,1.35.21.36.49.63.85.79.35.16.75.25,1.2.25.58,0,1.18-.12,1.82-.37l.24.49c-.28.22-.64.42-1.08.61-.44.19-.95.28-1.54.28-.62,0-1.17-.13-1.65-.39Z"/>
    <path class="cls-1" d="M88.46,15.08c-.44-.09-.85-.21-1.25-.36v-1.81h.56l.25.43c.15.38.35.67.61.85.25.18.6.27,1.05.27s.78-.08,1-.24c.22-.16.33-.36.33-.61s-.05-.42-.16-.55c-.11-.12-.3-.25-.58-.37l-1.74-.71c-.39-.16-.7-.37-.92-.64-.22-.26-.33-.6-.33-1.02,0-.31.09-.6.26-.86.17-.26.44-.48.81-.65s.82-.25,1.36-.25c.67,0,1.4.11,2.2.32v1.75h-.59l-.23-.46c-.09-.18-.18-.34-.28-.46-.1-.12-.23-.22-.41-.29-.18-.07-.4-.1-.67-.1-.41,0-.71.07-.9.21-.19.14-.29.31-.29.5s.05.34.16.47c.11.13.3.25.58.37l1.73.71c.4.16.71.38.93.65.22.28.33.63.33,1.05,0,.35-.1.67-.31.96s-.51.52-.89.7c-.39.18-.84.26-1.36.26-.39,0-.81-.04-1.24-.13Z"/>
    <path class="cls-1" d="M97.5,14.8c-.49-.28-.87-.67-1.13-1.17-.27-.5-.4-1.08-.4-1.73s.13-1.22.4-1.73c.27-.5.65-.9,1.13-1.18.49-.28,1.05-.42,1.69-.42s1.19.14,1.69.42.87.67,1.14,1.18c.27.5.4,1.08.4,1.73s-.13,1.23-.4,1.73c-.27.5-.65.89-1.14,1.17-.49.28-1.05.42-1.69.42s-1.2-.14-1.69-.42ZM100.16,14.16c.27-.17.47-.43.61-.8s.2-.84.2-1.43-.07-1.08-.21-1.45-.34-.65-.61-.83c-.26-.18-.58-.27-.96-.27s-.71.08-.97.25-.46.43-.6.8c-.14.36-.2.84-.2,1.43s.07,1.09.2,1.46c.14.37.34.65.6.83.26.18.59.27.97.27s.7-.08.97-.25Z"/>
    <path class="cls-1" d="M103.43,14.4l.68-.08c.18-.03.3-.09.36-.17.06-.08.1-.22.1-.41v-4.18h-.94v-.55l.94-.26v-.85c.04-.74.26-1.34.65-1.78.4-.44.96-.67,1.7-.67.36,0,.74.05,1.15.14l-.14,1.19h-.26l-.05-.04c-.18-.1-.36-.19-.54-.27-.18-.08-.36-.11-.56-.11-.27,0-.49.09-.65.28-.16.19-.24.45-.24.8,0,.24.02.47.07.7.04.23.1.43.17.62h1.79v.8h-1.76v4.18c0,.2.03.34.1.43.06.08.18.13.35.15l.88.11v.62h-3.78v-.64Z"/>
    <path class="cls-1" d="M113.18,14.73c-.6-.36-1.06-.87-1.4-1.54s-.5-1.47-.5-2.4.17-1.72.5-2.4c.33-.68.8-1.2,1.39-1.55.6-.36,1.29-.53,2.07-.53s1.47.18,2.07.54c.6.36,1.06.88,1.39,1.55.33.68.49,1.47.49,2.39s-.17,1.72-.5,2.39c-.33.68-.79,1.19-1.39,1.55-.59.36-1.28.53-2.06.53s-1.46-.18-2.06-.53ZM116.56,14.05c.37-.23.65-.61.85-1.14.2-.53.3-1.22.3-2.08s-.1-1.53-.3-2.08c-.2-.55-.48-.95-.85-1.21-.37-.26-.81-.38-1.32-.38s-.95.12-1.31.37c-.36.24-.65.63-.85,1.16-.2.53-.31,1.21-.31,2.05s.1,1.54.31,2.09.49.94.85,1.19c.36.25.8.38,1.31.38s.95-.12,1.32-.35Z"/>
    <path class="cls-1" d="M120.16,14.4l.67-.08c.18-.03.3-.09.36-.17.06-.08.1-.22.1-.41v-3.65c0-.17-.03-.3-.1-.38-.07-.09-.19-.14-.35-.17l-.67-.08v-.56l2.46-.3v5.14c0,.19.03.33.09.42.06.09.17.15.34.18l.7.08v.64h-3.59v-.64ZM121.26,7.38c-.17-.16-.25-.37-.25-.62s.09-.45.26-.61.39-.24.65-.24.48.08.66.24.26.36.26.61-.09.46-.26.62-.39.24-.67.24-.49-.08-.66-.24Z"/>
    <path class="cls-1" d="M124.33,14.4l.67-.08c.18-.03.31-.09.37-.17.06-.08.09-.22.09-.41v-6.61c0-.17-.03-.3-.1-.38s-.18-.14-.36-.17l-.67-.08v-.55l2.46-.31v8.11c0,.19.03.33.09.41.06.08.18.14.35.17l.68.08v.64h-3.59v-.64Z"/>
  </g>
</svg>