<?xml version="1.0" encoding="UTF-8"?>
<svg id="Layer_1" data-name="Layer 1" xmlns="http://www.w3.org/2000/svg" viewBox="0 0 954.86 504.49">
  <defs>
    <style>
      .cls-1 {
        fill: none;
        stroke: #000;
        stroke-miterlimit: 10;
        stroke-width: 5px;
      }

      .cls-2 {
        fill: #000;
        stroke-width: 0px;
      }
    </style>
  </defs>
  <rect class="cls-2" x="163.1" y="53.6" width="106.4" height="2.31"/>
  <rect class="cls-2" x="163.1" y="55.92" width="2.65" height="49.74"/>
  <rect class="cls-2" x="266.85" y="55.92" width="2.65" height="30.34"/>
  <rect class="cls-2" x="164.43" y="86.26" width="604.47" height="9.25"/>
  <rect class="cls-2" x="147.97" y="105.66" width="630.79" height="13.11"/>
  <rect class="cls-2" x="762.99" y="95.5" width="5.9" height="10.15"/>
  <rect class="cls-2" x="765.94" y="58.08" width="2.95" height="28.18"/>
  <rect class="cls-2" x="665.8" y="58.1" width="100.14" height="2.68"/>
  <rect class="cls-2" x="665.8" y="60.78" width="2.61" height="25.48"/>
  <polygon class="cls-2" points="665.8 58.1 656.43 68.91 656.43 86.26 665.8 86.26 665.8 58.1"/>
  <polygon class="cls-2" points="177.7 53.6 180.15 53.6 156.36 24.33 152.92 28.99 165.99 53.6 169.73 53.77 168.99 52.66 174.26 49.6 177.7 53.6"/>
  <polygon class="cls-2" points="159.15 27.77 164.04 33.78 162.28 0 160.52 0 159.15 27.77"/>
  <polygon class="cls-2" points="172.53 44.23 182.37 44.23 182.37 46.57 174.52 46.68 172.53 44.23"/>
  <ellipse class="cls-2" cx="183.86" cy="45.47" rx="2.49" ry="4.59"/>
  <rect class="cls-2" x="147.97" y="118.76" width="3.77" height="270.86"/>
  <rect class="cls-2" x="774.99" y="118.76" width="3.77" height="270.86"/>
  <rect class="cls-2" x="149.85" y="140.28" width="627.02" height="4.37"/>
  <rect class="cls-2" x="269.5" y="148.29" width="395.71" height="2.78"/>
  <rect class="cls-2" x="663.35" y="149.68" width="2.45" height="50.06"/>
  <rect class="cls-2" x="269.5" y="149.68" width="2.45" height="50.06"/>
  <rect class="cls-2" x="257.07" y="198.36" width="417.99" height="2.78"/>
  <rect class="cls-2" x="257.07" y="209.87" width="417.99" height="2.78"/>
  <rect class="cls-2" x="257.07" y="201.13" width="2.8" height="8.74"/>
  <rect class="cls-2" x="672.25" y="201.13" width="2.8" height="8.74"/>
  <rect class="cls-2" x="298.34" y="151.07" width="8.33" height="47.29"/>
  <rect class="cls-2" x="332.17" y="151.07" width="8.33" height="47.29"/>
  <rect class="cls-2" x="363.91" y="151.07" width="8.33" height="47.29"/>
  <rect class="cls-2" x="398.08" y="151.07" width="8.33" height="47.29"/>
  <rect class="cls-2" x="431.9" y="151.07" width="8.33" height="47.29"/>
  <rect class="cls-2" x="466.06" y="151.07" width="8.33" height="47.29"/>
  <rect class="cls-2" x="497.76" y="151.07" width="8.33" height="47.29"/>
  <rect class="cls-2" x="530.9" y="151.07" width="8.33" height="47.29"/>
  <rect class="cls-2" x="566.48" y="151.07" width="8.33" height="47.29"/>
  <rect class="cls-2" x="599.6" y="151.07" width="8.33" height="47.29"/>
  <rect class="cls-2" x="631.47" y="151.07" width="8.33" height="47.29"/>
  <rect class="cls-2" x="163.1" y="230.36" width="599.89" height="3.17"/>
  <rect class="cls-2" x="163.1" y="282.41" width="599.89" height="3.17"/>
  <rect class="cls-2" x="163.1" y="233.53" width="3.98" height="48.88"/>
  <rect class="cls-2" x="759.01" y="233.53" width="3.98" height="48.88"/>
  <rect class="cls-2" y="385.39" width="928.93" height="9.58"/>
  <path class="cls-2" d="M5.87,411.4h46.87s1.23,24.36,4.01,13.57,4.93,3.36,8.02,2.76,8.02-6.46,5.24-15.09h19.42s-2.77,20.35,0,23.43,0,7.09,0,7.09c0,0,2.77,10.17,4.01,0s-.62-15.11,3.39-15.11-2.47-13.57-2.47-13.57c0,0,1.23-3.7,2.47-3.08s22.51-.07,22.51-.07c0,0,2.16,11.48,0,19.49s4.32,12.02,3.7,14.18,3.7-5.24,1.85-8.32.92-7.4,3.08-5.86.92-9.25,0-9.25-2.84-9.39,1.2-10.24h22.57s2.8,13.33,0,20.73,3.37,5.24,3.37,5.24c3.08.31,0,19.12,0,19.12H20.98s-1.23-3.08,5.55-2.47l-.31-39.47-20.35-.49v-2.59Z"/>
  <path class="cls-2" d="M165.49,411.33s-6.07,6.84-2.63,10.28,3.8,5.26.79,5.46-9.9,5.91-8.54,10.23,0,19.12,0,19.12l797.24-8.72v-2.43h-2.22l-.4-32.96s-2.43-3.84-2.43,0-1.01,24.06-1.62,12.13-2.22-18-6.27-11.12-5.26,17.59-5.26,17.59c0,0-2.43-.61-2.02-5.06s2.9-16.38-3.2-11.93,3.07,18.2,0,18.2-3.47-18.4-3.47-18.4c0,0-1.62-4.77-3.03-3.29s-2.22-2.24-3.03-.28,1.82,24-.81,24.2-1.82-27.5-3.44-27.5-4.65-8.09-6.67,1.01-.4,26.69-2.63,27.3-3.03-27.7-3.03-27.7c0,0-9.3-2.22-11.53,1.01s-.2,9.1-5.06,10.11-9.71,1.82-9.5-1.42-1.82-10.11-1.82-10.11l-22.65.61s4.65,7.48,1.62,10.92-3.84-6.27-5.86-2.83-2.63,12.13-4.04,8.9-.81-17.59-.81-17.59h-23.05s6.47,8.49,4.04,10.92-4.25-4.45-5.66-1.82,2.22,16.99-1.21,16.99-4.04-25.68-4.04-25.68l-19.62-.2s2.43,4.45,1.01,9.91-4.04-2.22-6.07-.81-1.01,16.58-3.44,16.99-3.03-25.68-3.03-25.68l-26.09.4s5.26,5.86,3.64,8.49-6.27,0-6.88-.4,1.62,21.84-1.82,19.21-1.42-27.3-1.42-27.3h-21.44s5.66,5.06,4.45,8.9-4.04-2.22-5.26-2.22-1.42,15.37-3.44,16.18-1.62-23.05-1.62-23.05l-21.84.2s5.26,3.84,3.44,7.68-5.26-2.02-5.26-2.02c0,0-4.45,7.08-4.25,11.53s-5.46,6.07-5.46.4,2.63-17.39,2.63-17.39l-48.94.2s7.28,8.29,6.27,11.93-2.02-5.06-3.64-3.44.2,12.74-2.63,11.53.2-13.14-1.21-15.37-3.64-4.65-3.64-4.65h-32.56s3.84,6.47,2.83,11.53-3.24-4.85-5.46-2.63.4,14.71-3.64,12.61,1.42-14.03.4-16.45-3.64-4.65-3.64-4.65l-21.44.2s2.83,8.29,1.01,8.9-1.62-2.83-4.25,3.84-2.63-12.94-2.63-12.94l-26.49.2s.61,7.08,3.64,9.1-3.84,3.24-5.66,4.65-.2,12.13-2.83,11.12-1.42-24.67-1.42-24.67l-20.22.4s-.2,6.27-1.42,11.12-4.04-5.46-5.66-2.02,2.83,13.75-1.21,9.71-2.63-18.81-2.63-18.81h-24.27s3.03,6.07,1.42,7.28-3.44-1.21-5.06,1.01,2.83,11.32-.81,11.12-2.22-20.22-2.22-20.22h-23.66s2.63,16.18-.2,15.17-.4,4.85-4.85,6.88-1.21-21.03-1.21-21.03h-29.53s5.86,5.46,4.04,8.29-6.88-3.44-7.28,3.24-3.24,19.41-4.04,14.16,1.82-25.48-2.22-25.08-19.01-.2-19.01-.2c0,0,7.08,20.02,1.62,18.6s-3.03,7.28-5.66,6.47-.61-25.48-.61-25.48l-32.36.4s-.61,5.66,3.44,6.27,5.86,5.06,2.22,4.85-3.03-2.83-3.64,4.25-6.27,8.09-6.07,2.43,3.44-18.6-1.01-17.59-19.41-.2-19.41-.2c0,0,3.44,5.86,0,8.09s-7.28-2.02-6.67,4.65,4.45,14.96,0,13.35-5.86-16.18-3.44-20.22-.61-5.86-.61-5.86l-27.7.2s5.06,7.48,3.44,11.32-5.06,1.01-5.06,1.01c0,0-.2.81,1.62,8.7s-6.27,16.58-6.88,5.86,3.64-27.1,3.64-27.1l-30.33.61s4.45,4.65,2.02,9.1-7.08.61-4.65,7.48-5.86,3.84-5.66-15.98l-25.28-.17s6.88,2.8,5.46,7.04-4.65-3.03-5.06,1.42,4.65,22.04.2,19.62.81-15.17-3.03-17.19-.81-10.88-.81-10.88h-21.03s-4.04,7.24-2.22,12.91,4.45,11.99,1.01,9.64-.81-.54-3.84,4.92-5.66-9.91-5.26-15.17,3.64-12.67-.4-12.3-18,0-18,0Z"/>
  <path class="cls-1" d="M21.59,487.15s121.33,39.76,225.14-10.87,176.46,10.19,216.33,12.86,127.13,37.14,223.08-22.17,147.5,34.16,208.06,26.4,58.17-18.79,58.17-18.79"/>
  <g>
    <path class="cls-1" d="M322.91,242.59v34.17h5.81v-14.76h14.37s12.04-8.34,0-19.42h-20.18Z"/>
    <path class="cls-1" d="M327.07,248.47v6.99s9.54,3.95,11.98,0,1.67-9.12-9.88-7.6-2.1-2.43-2.1-2.43"/>
    <polygon class="cls-1" points="374.06 253.81 380.07 253.81 380.07 276.77 372.56 276.77 374.06 253.81"/>
    <path class="cls-1" d="M375.43,240.61s5.53-.97,4.63,4.82-10.7-.04-4.63-4.82Z"/>
    <path class="cls-1" d="M414.2,259.7s14.26,1.05,12.09-4.51-8.42-7.01-12.09,4.51Z"/>
    <path class="cls-1" d="M409.65,256.57s2.87-23.77,20.53-3.53c0,0,7.88,7.88-.95,10.87s-18.48,2.04-18.48,2.04c0,0-6.66,7.88,6.93,6.39,13.59-1.49,15.74-3.4,15.74-3.4v4.72s-35.45,6.55-23.76-17.09Z"/>
    <path class="cls-1" d="M457.59,242.91h6.13v8.31s14.73-10.55,19.42-8.31v4s-18.15,6.61-19.42,11.04v18.82h-6.13v-33.86Z"/>
    <path class="cls-1" d="M563.79,249.69v9.62s16.52-1.04,15.19,6.92c-1.33,7.96-15.19,6.49-15.19,6.49v4.19s18.75,1.47,20.31-8.59-15.35-13.4-15.35-13.4l-.22-5.23h11.79l-.89-4.82-15.64.63v4.19Z"/>
    <path class="cls-1" d="M599.38,244.2v7.97h11.54s-6.32,13.7-5.77,22.32h5.77s-3.49-19.77,8.25-30.29h-19.79Z"/>
  </g>
</svg>